<svg width="121" height="89" viewBox="0 0 121 89" fill="none" xmlns="http://www.w3.org/2000/svg">
<g clip-path="url(#clip0_89_7924)">
<path fill-rule="evenodd" clip-rule="evenodd" d="M46.9336 0.887889C47.4042 0.70024 47.8604 0.693022 48.331 0.638893C48.6219 0.606415 48.9416 0.736326 49.2254 0.451243C48.5716 -0.0575756 47.0234 -0.140574 44.8682 0.22029C45.4824 1.0611 46.2044 1.17297 46.9336 0.884281" fill="#36563D"/>
<path fill-rule="evenodd" clip-rule="evenodd" d="M51.1515 0.516008C51.3383 0.566529 51.5179 0.479921 51.8735 0.155143C51.4856 0.140709 51.306 0.133491 51.1192 0.129883C51.0222 0.129883 50.9575 0.212882 50.9899 0.335576C51.0114 0.414966 51.0904 0.501573 51.1515 0.516008Z" fill="#36563D"/>
<path fill-rule="evenodd" clip-rule="evenodd" d="M120.835 25.2427C120.26 24.8205 120.246 24.8169 120.515 24.0411C120.59 23.8173 120.601 23.6946 120.515 23.4709C120.21 22.6734 119.89 21.8723 119.8 20.9521C119.743 20.353 120.163 19.5844 119.509 19.2019C119.488 19.1874 119.466 19.0792 119.48 19.0539C119.965 18.0904 118.996 17.0728 119.577 16.1093C119.599 16.0696 119.56 15.8891 119.513 15.8386C118.974 15.2468 119.229 14.6081 119.466 13.9477C119.592 13.6013 119.739 13.1033 119.52 12.8687C119.114 12.4321 119.272 11.8258 119.157 11.3025C118.97 10.4365 119.071 9.71114 119.603 9.12654C119.348 8.45172 118.798 8.13777 118.845 7.29334C118.906 6.29014 118.475 5.46376 118.356 4.51469C118.284 3.9373 117.968 3.62335 117.548 3.5187C116.794 3.33827 116.039 3.24084 115.281 3.49344C115.005 3.58727 114.725 3.65583 114.444 3.70635C114.243 2.71397 114.175 1.72881 113.324 1.8082C112.541 1.88038 108.428 0.99265 107.655 1.45456C107.587 1.49425 107.501 1.49064 107.429 1.4726C106.384 1.17308 105.32 1.21639 104.257 1.24165C103.384 1.25969 102.511 1.07565 101.646 1.16587C100.363 1.29578 99.0881 1.53395 97.8237 1.11534C97.7267 1.08287 97.5758 1.09369 97.5076 1.1803C97.0514 1.72881 96.588 1.49064 96.0959 1.35712C95.32 1.14782 94.5513 0.909651 93.7431 0.978216C91.9111 1.13339 90.0827 0.934912 88.2507 0.99265C86.9719 1.03235 85.686 1.00708 84.4036 1.00348C83.1068 0.999867 81.8101 1.00348 80.5169 0.974607C79.4465 0.949346 78.394 1.00348 77.3307 1.32465C76.6339 1.53395 75.8616 1.64942 75.1862 1.4329C74.105 1.08648 72.9627 1.74325 71.9282 1.0143C71.8707 0.970998 71.7773 1.01069 71.7019 1.03595C70.6746 1.38238 69.6436 1.19834 68.6343 1.05039C67.3447 0.85913 66.0659 0.75448 64.7692 0.96739C63.9394 1.10452 63.0773 0.99265 62.2762 1.27052C61.4644 1.5556 60.6885 1.50147 59.8947 1.44373C59.2481 1.39682 58.5979 1.39321 57.9513 1.40043C57.294 1.40764 56.6259 1.44734 55.9577 1.54838C55.1998 1.66386 54.4347 1.81542 53.6803 1.77573C53.102 1.74686 52.5057 2.12576 51.9741 1.85512C51.1012 1.41125 50.2391 1.75768 49.3734 1.7649C48.8023 1.76851 48.2311 1.8046 47.66 1.81181C46.1872 1.82625 44.7073 1.81903 43.2345 1.83707C42.0635 1.85512 40.8924 1.8046 39.7214 1.8046C38.8881 1.8046 38.0475 1.70716 37.2213 1.8082C35.4684 2.02111 33.7262 1.98142 31.9804 1.95977C30.6118 1.94533 29.2433 1.92729 27.8783 1.9742C26.2474 2.03194 24.6023 1.99224 22.975 2.4325C22.7954 2.48302 22.5907 2.43611 22.4111 2.36754C21.9513 2.19072 21.5023 2.33507 21.0497 2.42889C20.7084 2.50106 20.3636 2.65263 20.0295 2.61293C19.074 2.50106 18.1221 2.7681 17.1882 2.89441C15.5645 3.11814 13.9157 3.03153 12.3065 3.58005C12.1628 3.62696 11.9832 3.44292 11.8144 3.34549C11.8144 3.3527 11.8072 3.35992 11.8072 3.36714C11.7856 3.38518 11.7784 3.3924 11.7641 3.40683C11.6958 3.71357 11.5486 3.85791 11.3151 3.78213C11.2612 3.76409 11.1929 3.65222 11.1858 3.57283C11.1786 3.50427 11.236 3.37796 11.2863 3.34549C11.448 3.23362 11.6132 3.24444 11.7749 3.3491C11.782 3.33827 11.782 3.33827 11.7892 3.32744C11.8 3.33105 11.8108 3.34188 11.818 3.3491C11.9006 3.08206 12.0407 2.8908 12.2346 2.87275C13.7541 2.73202 15.27 2.59128 16.7643 2.11133C18.5316 1.54838 20.3241 1.75047 22.0986 1.56642C24.3041 1.33908 26.5168 1.32465 28.7296 1.23082C29.9042 1.1803 31.0968 0.99265 32.2534 1.16226C33.4245 1.33186 34.5919 0.494657 35.7414 1.16226C35.7701 1.1803 35.8168 1.15143 35.8527 1.137C36.3053 0.963781 36.7579 0.978216 37.2177 1.07565C37.638 1.16587 38.0044 0.989042 38.3744 0.426093C37.7422 0.104924 37.189 0.039968 36.6143 0.0868804C36.0036 0.137401 35.3929 0.130184 34.7859 0.177097C32.7707 0.335877 30.7519 -0.23068 28.7404 0.429702C28.6685 0.454962 28.5859 0.462179 28.5141 0.436919C27.5765 0.126575 26.6174 0.169879 25.6655 0.281747C24.6813 0.397224 23.715 0.198748 22.7128 0.397224C20.9132 0.747262 19.0776 0.613743 17.26 0.895217C15.8591 1.11534 14.4546 1.23804 13.0536 1.45817C12.4861 1.54838 11.9329 1.8912 11.3689 1.9309C10.1225 2.02472 7.18056 2.48663 6.08856 3.41405C5.3845 4.00948 5.36295 3.95896 5.54256 5.00546C5.65391 5.66224 6.00594 6.30097 5.63595 7.03713C5.60362 7.10569 5.67546 7.38717 5.74731 7.44851C6.37952 7.96455 6.28253 8.88836 6.00235 9.45492C5.58925 10.2813 5.67906 11.1005 5.60003 11.9557C5.52819 12.7749 5.60721 13.5219 5.99157 14.0884C6.40466 14.6947 6.41544 15.4777 6.50883 16.2067C6.60582 16.9573 6.9794 17.7548 6.4334 18.5198C6.36156 18.6209 6.42262 18.9348 6.4334 19.1514C6.47291 19.8009 6.51961 20.4469 6.56271 21.0711C6.36874 21.3634 6.13525 21.4212 5.91254 21.4645C5.49586 21.5475 5.07558 21.6774 4.66249 21.6413C4.08057 21.5944 5.31625 21.829 4.75589 21.9408C3.883 22.114 3.40526 23.2472 3.5669 24.4813C3.61 24.7989 3.76447 25.1561 3.61719 25.434C3.25079 26.1233 3.80039 27.1265 3.18254 27.7219C3.12866 27.7724 3.14662 28.0394 3.17177 28.191C3.45914 29.9304 3.2472 31.7527 3.59204 33.4271C3.40525 33.6076 3.38011 34.7263 3.20769 34.8056C39.6316 35.0691 76.6518 33.6292 113.144 33.8205C113.101 33.7375 113.069 33.6473 113.015 33.5679C112.961 33.4885 112.914 33.4055 112.867 33.3189C113.765 33.3261 114.663 33.3297 115.558 33.3333C115.594 33.3153 115.626 33.3045 115.662 33.2936C114.998 33.2756 113.801 33.2178 112.792 33.1565C112.763 33.0915 112.738 33.0266 112.717 32.958C112.986 32.958 113.255 32.9544 113.525 32.9292C115.235 32.7848 116.948 32.6008 118.658 32.4997C119.118 32.4709 119.588 32.3554 119.757 31.8177C119.951 31.2042 120.396 30.6413 120.246 29.8799C120.084 29.0751 120.131 28.256 120.105 27.4368C120.066 26.1196 120.055 26.1233 120.925 25.7299C120.968 25.7083 120.982 25.5495 121.007 25.4557C120.953 25.3871 120.903 25.2969 120.838 25.25M116.086 31.6914C115.834 31.7167 115.547 31.76 115.411 32.3446C116.56 32.46 114.096 32.3842 112.551 32.2832C112.519 32.0631 112.501 31.8357 112.487 31.6048C112.993 31.2403 113.471 31.5434 113.941 31.6445C115.375 31.6445 116.546 31.6445 116.086 31.6878M115.148 31.5037C115.192 31.446 115.231 31.3738 115.285 31.3341C115.303 31.3197 115.353 31.3594 115.375 31.3919C115.432 31.4821 115.411 31.5579 115.321 31.6084C115.263 31.5759 115.206 31.5398 115.148 31.5037ZM116.384 4.17187C115.892 4.22239 115.411 4.07804 114.911 4.226C114.807 4.25487 114.699 4.28373 114.595 4.30899C114.559 4.19352 114.527 4.07804 114.498 3.95535C115.881 4.01669 117.085 4.09608 116.38 4.16826M117.871 31.6228C117.72 31.6842 117.584 31.6842 117.505 31.4496C117.537 31.363 117.552 31.2259 117.602 31.1934C117.749 31.0996 117.886 31.1429 117.961 31.3738C118.001 31.5001 117.965 31.5903 117.871 31.6264" fill="#36563D"/>
<path fill-rule="evenodd" clip-rule="evenodd" d="M120.55 40.215C120.073 39.7855 119.818 39.1829 119.764 38.3601C119.742 38.0317 119.591 37.8152 119.426 37.624C119.272 37.4471 119.25 37.2126 119.289 36.9347C119.34 36.5739 119.379 36.2094 119.419 35.8485C119.501 35.0871 119.462 34.3834 119.164 33.7772C117.982 33.7699 116.793 33.7663 115.604 33.7627C114.257 33.6653 112.903 33.5246 111.549 33.4091C110.823 33.3477 110.094 33.4163 109.365 33.3802C108.273 33.3261 112.191 33.0987 113.589 33.0626C113.557 33.0518 113.524 33.041 113.492 33.0229C95.1937 33.1565 56.3487 33.5895 56.2553 33.8638C39.8968 33.9179 23.1504 33.9468 6.13106 33.8457C6.09154 33.8638 6.05203 33.8746 6.01611 33.889C7.6577 33.9287 12.2233 34.1705 10.9517 34.2282C10.1003 34.2679 9.2526 34.1958 8.40486 34.2643C6.49386 34.4159 4.57568 34.6071 2.65031 34.7154C2.13305 34.7443 1.60142 34.867 1.41103 35.4263C1.19192 36.065 0.689021 36.6496 0.861442 37.4363C1.04464 38.2699 0.990758 39.1216 1.01949 39.9696C1.06619 41.3337 1.07697 41.33 0.0963244 41.7414C0.049627 41.7631 0.0316665 41.9291 0.00292969 42.0301C0.0675876 42.1023 0.121469 42.1925 0.193311 42.243C0.843482 42.6761 0.85785 42.6797 0.556114 43.4844C0.469903 43.7154 0.459127 43.8453 0.556114 44.0726C0.897363 44.8954 1.25657 45.7182 1.36074 46.6708C1.4254 47.2915 0.951245 48.089 1.68403 48.4752C1.70918 48.4896 1.73432 48.6015 1.71996 48.6267C1.17755 49.6263 2.26236 50.6656 1.6086 51.6652C1.58346 51.7049 1.63015 51.8926 1.68044 51.9431C2.28392 52.5457 2.00014 53.2061 1.73073 53.8917C1.59064 54.249 1.42181 54.765 1.66607 55.0032C2.11868 55.4435 1.94626 56.075 2.07198 56.609C2.28032 57.4932 2.16897 58.2438 1.57268 58.8536C1.85645 59.5429 2.47789 59.8532 2.42042 60.7193C2.35217 61.7514 2.83351 62.5886 2.96641 63.5557C3.04544 64.1475 3.40106 64.4579 3.86803 64.5517C4.70859 64.7177 5.54914 64.7971 6.39328 64.5192C7.69003 64.0934 9.01911 64.0753 10.3015 64.0681C12.0365 64.0573 3.43698 64.0537 5.16837 63.8516C5.71797 63.7866 6.25319 63.9202 6.80637 63.7578C8.68864 63.2093 10.596 63.3067 12.4783 63.1371C14.4037 62.9639 16.3254 62.751 18.24 62.5453C19.1524 62.4478 20.0828 62.1519 20.9736 62.2638C22.1806 62.419 23.366 61.8488 24.555 62.0798C26.2001 61.5457 27.8489 61.8596 29.4869 61.7802C30.7477 61.7189 31.9942 61.8777 33.255 61.4988C33.7292 61.3544 34.2321 61.3616 34.7206 61.3652C35.9311 61.3725 37.1417 61.2678 38.3486 61.2498C40.2776 61.2209 42.2066 60.943 44.1032 61.3797C44.2972 61.423 44.5091 61.4555 44.6995 61.3941C46.2908 60.8709 47.8857 61.2065 49.4806 60.9936C50.0445 60.9178 50.6085 60.8961 51.1724 60.9033C51.1617 61.0224 51.1545 61.1415 51.1437 61.2642C51.5604 61.2281 51.9807 61.2029 52.3974 61.192C53.0834 61.174 53.7659 61.1054 54.452 61.026C54.4556 61.026 54.4592 61.026 54.4628 61.026C56.0397 61.0332 57.5808 61.423 59.1577 61.3183C59.9013 61.2678 60.6376 61.2245 61.3776 61.3075C62.2649 61.4049 63.1629 61.4302 64.0609 61.3436C64.8727 61.2678 65.6881 61.2931 66.4964 61.3328C67.9224 61.3977 69.3377 61.5998 70.7602 61.5745C72.7969 61.5421 74.7977 61.8524 76.8129 61.921C78.2174 61.9679 79.6039 62.2349 80.9941 62.2927C83.5193 62.3937 86.0338 62.4514 88.5052 62.9025C89.2128 63.0324 89.9169 62.7401 90.6245 62.8845C91.5333 63.0721 92.4637 63.1154 93.3832 63.2093C93.8215 63.2526 94.2813 63.1804 94.698 63.3211C95.244 63.5052 95.7971 63.534 96.3467 63.4871C97.4208 63.3969 98.4625 63.6134 99.515 63.7036C101.113 63.8372 102.723 63.9057 104.278 64.3712C104.451 64.4218 104.644 64.3785 104.824 64.3749C106.459 64.3424 108.093 64.3063 109.717 64.2846C110.18 64.281 110.661 64.2341 111.092 64.3785C111.416 64.4867 111.62 64.4326 111.879 64.1331C112.321 63.6279 112.813 63.1876 113.37 63.1804C113.722 63.1804 113.988 62.9458 114.293 62.7762C115.112 62.3215 115.733 61.2317 116.642 61.0693C116.732 61.0513 116.836 60.9142 116.901 60.7987C117.292 60.095 117.343 59.2253 117.005 58.5325C116.883 58.2835 116.829 58.0489 116.786 57.7386C116.721 57.3127 116.581 56.8977 116.412 56.5224C116.538 56.3384 116.667 56.1508 116.761 55.9162C116.276 55.3749 116.197 54.6929 116.394 53.8737C116.513 53.3793 116.38 52.8091 116.771 52.3905C116.983 52.1668 116.854 51.6977 116.746 51.3729C116.538 50.7522 116.312 50.1532 116.836 49.5866C116.879 49.5397 116.922 49.3665 116.901 49.3304C116.373 48.4246 117.31 47.4539 116.879 46.5482C116.865 46.5229 116.89 46.4218 116.912 46.4074C117.159 46.2595 117.249 46.0574 117.271 45.8336C117.282 45.8048 117.289 45.7759 117.296 45.7398C117.447 44.7294 118.029 44.5201 118.564 44.1737C119.494 43.5782 120.288 42.741 120.701 41.312C120.827 40.8718 120.831 40.4568 120.554 40.2078M6.42202 35.9063C6.40406 35.9207 6.34658 35.881 6.32144 35.8449C6.25678 35.7547 6.27833 35.6753 6.37891 35.6212C6.44357 35.6573 6.50823 35.6933 6.57289 35.7294C6.5226 35.7908 6.47949 35.863 6.42202 35.9063Z" fill="#A17D23"/>
<path d="M112.39 8.05838C112.436 8.04034 112.476 8.01869 112.512 7.98621C112.548 7.95373 112.58 7.91043 112.598 7.85991C112.62 7.80938 112.627 7.75165 112.627 7.68669C112.627 7.52791 112.576 7.41243 112.476 7.34387C112.379 7.27891 112.253 7.24644 112.081 7.24644H111.553V8.65381H111.912V8.09808H111.98L112.285 8.65381H112.677L112.332 8.07282C112.35 8.06921 112.372 8.06199 112.39 8.05477M112.268 7.66504C112.268 7.74443 112.239 7.75886 112.232 7.76247C112.192 7.78052 112.142 7.78773 112.081 7.78773H111.915V7.56039H112.07C112.095 7.56039 112.124 7.56039 112.149 7.564C112.174 7.5676 112.199 7.57482 112.217 7.58204C112.232 7.58926 112.246 7.60008 112.257 7.61452C112.264 7.62534 112.271 7.64339 112.271 7.66504M113.313 7.38717C113.237 7.21757 113.137 7.07322 113.015 6.95774C112.889 6.83866 112.742 6.74844 112.58 6.68349C112.253 6.55718 111.876 6.55358 111.549 6.68349C111.384 6.74844 111.24 6.84227 111.114 6.95774C110.989 7.07683 110.888 7.22117 110.816 7.38717C110.741 7.55678 110.705 7.74443 110.705 7.95012C110.705 8.15581 110.741 8.35068 110.816 8.51668C110.888 8.68268 110.992 8.82702 111.114 8.94972C111.24 9.0688 111.384 9.16263 111.549 9.22397C111.711 9.28893 111.887 9.3178 112.063 9.3178C112.239 9.3178 112.411 9.28532 112.576 9.22397C112.738 9.16263 112.885 9.0688 113.011 8.94972C113.137 8.83063 113.237 8.68629 113.309 8.51668C113.385 8.34707 113.421 8.15942 113.421 7.95012C113.421 7.74082 113.381 7.55317 113.309 7.38717M113.065 7.95012C113.065 8.1089 113.04 8.25686 112.986 8.38677C112.932 8.52029 112.86 8.63576 112.77 8.7332C112.681 8.82702 112.576 8.9028 112.454 8.95693C112.332 9.01106 112.206 9.03632 112.07 9.03632C111.933 9.03632 111.801 9.01106 111.678 8.95693C111.556 8.9028 111.452 8.82702 111.362 8.7332C111.272 8.63576 111.201 8.52029 111.15 8.39038C111.096 8.25686 111.071 8.11251 111.071 7.95373C111.071 7.79495 111.096 7.65421 111.15 7.52069C111.201 7.39078 111.272 7.27891 111.362 7.18148C111.449 7.08766 111.556 7.01187 111.678 6.95774C111.801 6.90361 111.933 6.87835 112.07 6.87835C112.206 6.87835 112.336 6.90722 112.454 6.95774C112.58 7.01187 112.684 7.08766 112.77 7.18148C112.86 7.2753 112.932 7.39078 112.986 7.52069C113.04 7.6506 113.065 7.79495 113.065 7.95373M30.0946 27.5306V27.6028C30.0946 28.9344 29.8431 30.3057 29.9114 31.6373C29.8036 31.8538 29.4408 31.8574 29.1893 31.9332C29.1175 31.9729 28.7547 32.0811 28.6829 32.1208C28.3596 32.1966 20.8269 32.3193 20.3959 32.2904C19.3865 32.0162 18.0826 32.1389 17.0732 32.1533C16.3512 32.1605 15.701 32.2038 14.979 32.2146C14.6557 32.2183 14.1851 31.2511 14.2211 31.179V29.6417C14.2211 27.8734 14.2929 26.2135 14.2929 24.4488C14.2929 24.2684 14.2929 24.1241 14.3288 23.9436L14.2175 21.7496C14.2175 21.2841 14.2893 19.0106 14.2893 18.509C14.2893 18.2925 14.2175 16.3041 14.2175 16.0515V15.9433C14.2175 14.1426 14.2175 12.3563 14.2175 10.5556V10.2308C14.2498 9.86992 14.3252 8.14138 14.3252 7.78051C14.3611 7.564 14.4689 7.34748 14.7239 7.2717C15.8052 7.07683 16.9259 7.0624 18.0466 7.04796L19.3111 7.02992C19.7457 7.0227 21.7285 7.07322 22.1273 7.10209C22.1632 7.10209 22.4146 7.13818 22.4901 7.17065C23.8982 7.29335 25.9385 7.45935 27.3107 7.4413C27.9249 7.43409 28.5751 7.24283 29.1534 7.23561C29.2971 7.23561 29.8754 7.26448 29.8754 7.55317V12.3779C29.8036 12.7749 29.9832 13.8503 29.2612 13.7889L28.5033 13.7997L27.7812 13.807C27.1311 13.7781 23.503 13.6013 22.817 13.576C22.526 13.4353 22.0949 13.4786 21.7717 13.4822H21.4088L21.3729 13.5219V15.9685C21.3729 16.0046 21.3011 16.582 21.2652 16.7985C21.2292 16.8346 21.1933 17.0511 21.1933 17.0872V17.1594C21.1933 17.1594 21.2292 17.1919 21.2652 17.2316C21.7321 17.1883 23.9018 17.1594 24.3364 17.1919C24.7315 17.1883 28.2913 17.1846 28.6146 17.181C28.9056 17.1774 29.157 17.3506 29.157 17.6754C29.157 17.7837 29.157 17.8919 29.0852 17.9641V20.4469C29.0852 21.2768 28.9415 22.1068 28.9774 22.9693C28.9056 23.2219 28.5823 23.2255 28.3991 23.2291L26.269 23.2544C24.8609 23.2724 22.8565 23.2544 21.4448 23.2724L20.9778 23.2796L20.906 23.3157C20.9419 24.1457 20.8341 24.8999 20.8341 25.6938V26.199C20.8341 26.2351 20.906 26.2676 20.906 26.2676H20.9419H20.9778C21.0137 26.2676 21.1574 26.1593 21.1933 26.1233L21.5885 26.116H21.9872C22.7451 26.1377 27.0233 26.2712 27.7848 26.2965C28.0363 26.3326 29.1965 26.4228 29.448 26.4553C30.0981 26.5202 29.9185 26.7367 30.0263 27.3466C30.0622 27.3466 30.0981 27.5234 30.0981 27.5234M51.9166 28.3534C51.5681 26.9316 51.0796 25.5459 50.7276 24.1205C50.3073 22.3703 49.8152 20.5768 49.359 18.8194C49.007 17.5744 48.5867 16.3619 48.2311 15.1133C47.6671 13.0527 47.1391 10.8876 46.6075 8.78733C46.5715 8.5672 46.4997 8.38316 46.4674 8.15942C46.3955 7.82743 46.4314 7.75525 46.2554 7.53152C45.9034 7.04796 45.088 7.13457 44.6246 6.93609L43.8775 6.91444L43.1303 6.89279C42.455 6.91083 39.1574 6.92888 39.0856 6.92888C37.4655 7.21757 37.2141 8.31459 36.8549 9.85909C36.7435 10.671 34.6422 16.997 34.3907 18.177C34.3189 18.3611 33.992 19.6169 33.9201 19.9489C33.8124 20.2845 33.5573 21.5403 33.5573 21.5403L32.4294 26.0619C32.3935 26.8775 32.0989 27.6208 31.8834 28.3642C31.6284 29.3277 31.4093 30.2588 31.262 31.2259C31.262 31.2656 31.1866 31.4893 31.1866 31.5254C31.2225 31.7852 31.5529 32.1208 31.7721 32.2327H32.1744C32.9395 32.2327 33.7046 32.1605 34.5021 32.1605C35.1918 32.1605 35.8778 32.2363 36.5675 32.2363C37.1099 32.2363 37.1459 31.4207 37.2536 31.0527C37.3614 30.7207 37.541 30.5366 37.541 30.1649L38.3456 27.6028C38.3779 27.527 38.4175 27.4909 38.4893 27.4188C38.5611 27.4188 38.9563 27.3827 39.0676 27.3863C39.1395 27.3863 39.7501 27.2419 39.786 27.2059C40.7559 27.0651 41.5318 27.4945 42.4622 27.2383L45.2353 27.2564C45.2353 27.2564 45.343 27.4404 45.379 27.5162C45.8747 29.021 46.0507 30.6702 46.4781 32.1713C46.55 32.3518 50.0702 32.1389 51.4029 32.0667C51.7873 32.0306 52.5236 32.175 52.5236 31.594V31.4857C52.5236 31.4135 52.4877 31.3053 52.4877 31.2331C52.3153 30.2876 52.1393 29.3422 51.9274 28.3606M43.7697 21.3021L43.6978 21.3743C42.5915 21.3238 41.557 21.3851 40.447 21.3743C40.447 20.7825 40.8421 20.1618 40.9822 19.5772C41.2696 18.3322 41.6252 17.0511 41.8767 15.7664C41.8767 15.7304 41.9485 15.6943 41.9485 15.6582C41.9844 15.586 42.3077 15.2973 42.4119 15.2612C42.4119 15.2973 42.5879 15.5211 42.6238 15.5608C42.6597 15.6004 42.6957 15.6726 42.6957 15.6726C42.6957 15.6726 43.0513 18.5812 43.2309 18.7291C43.335 19.3931 43.4428 19.9092 43.4787 20.6056C43.5865 20.7897 43.7661 21.0495 43.7661 21.2696V21.3057L43.7697 21.3021ZM71.2385 30.7135C70.5273 29.6525 68.8462 26.9388 68.3253 25.766C68.3253 25.6938 67.8296 24.9252 67.8296 24.9252L67.6536 24.6329C67.6536 24.6329 67.6536 24.5968 67.6177 24.5607L67.1938 23.756C67.122 23.6838 66.6981 22.9873 66.6622 22.9152C66.2706 22.2945 65.994 21.598 65.642 20.9015C65.642 20.7572 66.091 20.7175 66.1629 20.6814C66.5364 20.5732 66.91 20.3891 67.2082 20.2051C69.2341 18.924 70.5452 16.6903 70.5991 14.3807L70.6171 13.6482C70.1285 11.0463 69.3167 9.47297 67.0681 7.97177C67.0681 7.97177 66.9208 7.86351 66.849 7.86351C66.303 7.60369 65.5271 7.42326 65.0206 7.23922C64.647 7.31139 64.0256 7.05518 63.6232 7.01909L59.751 6.79896H54.5855L53.9569 6.90722L53.8455 6.9794C53.806 7.01548 53.5043 7.30778 53.4289 7.34748C53.4253 7.52791 53.3283 8.40842 53.3283 8.40842C53.2816 10.2416 53.5546 18.6967 53.5187 20.1618C53.5079 20.6381 53.4576 21.1505 53.4432 21.663C53.4432 21.663 53.5546 24.6654 53.5833 24.9216C53.5797 25.1056 53.5007 26.7909 53.533 26.9749C53.533 27.0471 53.5833 27.8915 53.5833 27.9637V28.0358C53.5689 28.4761 53.5258 28.8767 53.5151 29.3169C53.4971 30.0134 53.5905 30.8181 53.6444 31.4785L53.6803 31.5146C53.6803 31.5507 53.7162 31.5507 53.7162 31.5867C53.8599 31.8069 54.0718 32.0992 54.291 32.1353C54.4777 32.1353 55.2501 32.1713 55.4333 32.1713C55.6919 32.1713 56.4678 32.1353 56.5432 32.1353C57.0246 32.1353 59.1295 32.0631 59.5714 32.0631C59.7617 31.9548 59.9126 31.8069 59.9198 31.5507C59.9234 31.4063 59.8839 31.3702 59.8156 31.2223L59.8587 29.4288C59.7905 29.1365 59.8012 28.7323 59.8084 28.4761C59.8264 27.7832 59.9557 27.0471 59.9701 26.3867C59.9809 25.9464 59.8767 25.618 59.891 25.1417C59.8587 24.8855 59.9234 23.7488 59.9306 23.5322L60.0383 23.6405C60.4263 24.4092 60.8501 25.1814 61.274 25.95C61.3423 26.1702 61.7266 27.011 61.8344 27.195C61.9385 27.3791 61.9385 27.343 61.9745 27.5234L63.9394 30.8939C64.0507 30.93 64.0471 31.0418 64.0435 31.114C64.1836 31.4063 64.3489 32.2038 64.7188 32.175C68.4115 31.8718 72.7364 33.023 71.6013 31.1934C71.4935 31.0455 71.4253 30.8253 71.2457 30.7171M63.3323 14.9581L63.3143 15.7556C62.8761 17.4733 61.741 17.4842 60.2431 17.495H60.0311C59.7761 17.4986 59.9126 16.8923 59.8839 16.7552C59.9342 15.1927 59.8084 13.4244 59.9342 12.082L59.9485 11.9305C60.0635 11.9341 60.6418 11.9305 60.7891 11.9341C60.7891 11.9341 61.2129 11.8439 61.2848 11.8475C61.3602 11.8511 61.7625 11.9449 61.8344 11.9882C63.0988 12.4248 63.361 13.7059 63.3323 14.9617M88.5309 12.8074C88.5165 13.2115 88.3908 13.2115 88.028 13.2115C87.6293 13.2476 86.5049 13.2837 86.4331 13.2837C86.3613 13.3198 86.1421 13.3559 86.0703 13.3559L83.1858 13.3126C83.1823 13.4605 83.1284 14.2003 83.1248 14.3122C83.1032 15.0086 83.0853 15.7051 83.2074 16.3655C83.1715 17.5744 83.1787 18.675 83.1427 19.8875C83.132 20.3278 83.0817 20.8041 83.0673 21.2083V21.3923C83.0601 21.4645 83.3618 29.8654 83.3116 31.6625C83.2972 32.0631 83.114 32.175 82.7153 32.211C81.4473 32.2832 80.5241 32.2471 79.2561 32.2471H77.5355C77.3163 32.2471 77.1727 32.211 77.0721 31.9909L77.0864 31.4785C77.1008 30.9661 77.0326 30.5258 77.0469 30.0098C77.0505 29.8618 77.029 29.3855 77.029 29.3494C77.029 29.2772 76.9787 28.5807 76.9823 28.4689C76.9499 28.3245 77.0254 26.9677 77.029 26.7836C77.011 24.9504 76.8278 21.5042 76.7739 19.6674C76.7775 19.523 76.7739 18.4224 76.7847 18.0904C76.7919 16.5892 76.6195 14.8535 76.6985 13.3126C76.6303 13.2043 76.3788 13.1682 76.2351 13.1682L71.9461 13.0636C71.7306 13.0636 71.4433 12.8795 71.4504 12.6594V12.6233C71.4504 12.5872 71.4935 12.4393 71.4971 12.4032L71.5151 11.7789C71.5402 10.9742 71.5618 10.1658 71.5438 9.43327C71.5115 9.3611 71.4576 8.70072 71.4612 8.58885L71.4971 7.30417C71.5366 7.19591 71.5726 7.15983 71.6875 7.08405C71.8312 7.12013 72.4454 7.12013 72.5927 7.08405C73.0669 7.04796 80.6354 7.15622 80.6354 7.15622C81.1419 7.19231 84.8633 7.15261 84.8633 7.15261C85.3339 7.15261 85.9841 7.22478 86.4978 7.04074H87.913C88.2723 7.04074 88.2615 7.44491 88.3297 7.66504C88.3297 7.66504 88.4339 7.80938 88.4303 7.84547L88.5022 7.91764C88.5022 7.91764 88.5668 11.7356 88.5381 12.8001M108.036 10.4617C108.036 12.7063 107.824 14.9509 107.824 17.1991C107.824 17.9461 107.928 18.7328 107.928 19.4437C107.928 20.1546 107.788 20.7536 107.788 21.4645V23.6369C107.788 23.7127 107.716 24.4236 107.716 24.4597C107.716 24.6834 107.716 25.7335 107.752 25.9573V26.181C107.716 27.0795 107.716 27.4909 107.716 28.3137V29.4685C107.928 29.8799 107.856 30.5511 107.856 30.9661V31.8285C107.752 32.1244 107.332 32.2399 107.12 32.2399C107.084 32.2399 106.908 32.2038 106.876 32.2038H106.384C104.875 32.2038 103.37 32.3157 101.861 32.3157C101.689 32.3157 101.477 32.3157 101.373 32.2038C101.301 32.1641 101.161 31.0455 101.128 30.6665V30.6305C101.128 30.4428 101.057 29.8077 101.057 29.7319C101.057 29.3927 101.128 26.5563 101.128 26.2568V22.926H100.916C99.9717 22.926 97.7267 23.0018 97.7267 23.0018L96.4658 23.1533C96.4658 23.7524 96.3258 24.2756 96.2898 24.8386C96.2539 25.849 96.1497 26.9352 96.1138 27.9456V29.8185C96.1138 29.9304 96.042 30.7171 96.0096 30.7928V31.8394C95.9773 31.9151 95.8013 32.1028 95.6935 32.1389C94.0124 32.1028 92.3673 32.2507 90.6826 32.2507C90.3665 32.2507 89.5977 32.3626 89.5977 31.8394V31.7239C89.5977 31.6878 89.6337 31.3522 89.6337 31.2764C89.6696 31.013 89.6337 29.7391 89.6337 29.4793L89.5977 24.5355C89.7019 23.9364 89.7378 23.2652 89.7378 22.6662C89.7378 21.432 89.5654 20.1979 89.5977 18.9601C89.4936 18.8085 89.5259 18.5126 89.5259 18.3971C89.5259 18.1734 89.5259 17.9461 89.5977 17.7223C89.7378 14.8787 89.8097 11.9954 89.8097 9.11211V7.87795C89.8097 7.80217 89.7738 7.65421 89.7738 7.61452C89.7738 7.53874 89.9138 7.39078 89.9462 7.35109C90.8586 7.08766 91.7674 7.12735 92.7157 7.12735H94.1489C94.5369 7.12735 96.2862 7.16344 96.6742 7.16344C96.9867 7.16344 97.2346 7.49904 97.2346 7.83464V8.02229C97.1304 8.84507 97.1663 9.66784 97.0585 10.4545V13.3739C97.0585 13.6734 96.9903 16.7047 96.9903 16.7047H97.3064C98.5349 16.7047 99.7239 16.6289 100.949 16.665C101.053 16.0696 101.053 15.8783 101.053 15.4669C101.053 15.1674 101.017 14.904 101.017 14.6442C101.017 14.0054 101.125 13.3703 101.125 12.7352V12.4357C101.125 12.1001 101.053 10.5267 101.017 10.1875C101.017 10.1153 100.913 9.62814 100.913 9.44049V9.4008C100.913 9.32862 101.017 8.3182 101.017 8.20634V8.09447C101.017 8.05838 100.913 7.75525 100.913 7.71917C100.845 7.38356 101.441 7.38356 101.613 7.34748C101.825 7.34748 103.891 7.19591 104.135 7.15983H107.325C107.605 7.30778 108.025 7.41965 108.025 7.75886C108.025 8.09808 107.921 8.39399 107.921 8.7332C107.921 9.33223 108.025 9.85549 108.025 10.4545M32.063 56.555C32.1313 56.7679 32.1672 56.8725 32.1672 57.0854C32.1672 57.5762 31.6068 57.6628 31.1866 57.8252C29.369 58.4712 27.4759 58.6913 25.5505 58.8392C24.71 58.9186 23.8694 58.998 22.993 58.9691C20.8952 58.9006 19.0488 58.2799 17.3282 56.9591C15.7513 55.7538 14.8856 53.9784 14.0989 52.2174C14.1133 51.6652 13.711 51.2033 13.6176 50.6801C13.6248 50.4383 13.5386 49.6444 13.5098 49.5073C13.5134 49.3701 13.1362 45.2924 13.7218 43.9536C13.7218 43.9211 13.8008 43.5494 13.8044 43.4808C13.8403 43.4484 13.8834 43.0442 13.887 42.9756C13.9624 42.7772 14.1384 42.4776 14.1815 42.1745L14.6018 40.4712C14.6018 40.4388 14.6701 40.4063 14.6701 40.4063L15.7297 38.9015C16.0782 38.4107 16.2901 38.1184 16.775 37.6998C16.8792 37.606 17.533 37.0611 17.709 36.9636C17.709 36.9636 17.8132 36.9348 17.8132 36.9023C19.7709 35.5743 22.2207 34.7912 24.692 34.867C26.4845 34.9247 28.241 35.4733 29.7964 36.3465C29.8611 36.3465 30.3711 36.6316 30.4394 36.6641C30.8453 36.877 32.1708 37.6132 32.1708 38.0426C32.1708 38.3097 32.002 38.3024 31.7972 38.5298C31.6607 38.7571 31.0824 39.7098 31.0465 39.7098C30.9782 39.7712 30.2598 40.9548 30.2275 41.0234C30.0227 41.3193 29.7461 42.1853 29.2648 42.1709C28.8194 42.1565 27.9393 41.2218 27.3933 41.0378L25.8631 40.5218C25.3494 40.4712 24.8429 40.2547 24.2969 40.2367C21.1287 40.1356 20.0798 43.6721 20.0367 46.2487V46.4183C20.2019 48.5438 20.4641 51.6147 22.4901 52.8922C22.8672 53.1484 23.5605 53.5526 24.0778 53.567L25.7445 53.6211C26.0211 53.5273 26.7503 53.7222 26.7539 53.2711C26.7611 52.5421 26.6246 52.1921 26.6641 51.5029L26.5958 51.3621L24.358 51.2142C24.2179 51.2106 23.9125 50.958 23.9125 50.8208C23.9125 50.6476 23.9844 50.4455 23.988 50.2723C23.988 50.1352 23.9449 46.0466 24.1855 46.0538C25.5613 46.0971 30.3819 46.2378 31.3123 46.2667C31.4524 46.2703 31.9337 46.3208 32.0343 46.3208C32.1708 46.3966 32.081 49.316 32.081 50.7811L32.0343 56.4756C32.0343 56.5117 32.0666 56.5153 32.0666 56.5477M53.0229 45.3465C52.7931 44.7655 52.8577 43.9824 52.7607 43.4051C52.7607 43.3365 52.6278 42.8602 52.5955 42.7555C52.5955 42.723 52.4949 42.0771 52.4626 42.0049C52.362 41.4925 52.168 41.1894 52.0674 40.6769C52.0674 40.6084 51.9669 40.4027 51.9669 40.3341C51.3095 38.8365 50.3576 37.6781 49.0142 36.7904L48.4861 36.4151C47.7318 36.0073 46.9128 35.4805 46.1225 35.1737C44.8761 34.766 43.6619 34.7804 42.3149 34.7804C41.3666 34.7804 40.4111 35.2243 39.5597 35.531C36.9986 36.3899 35.5546 38.8365 35.5546 38.8365C35.1271 39.3129 34.2722 41.4275 34.1752 42.0049C34.0746 42.4488 34.0423 42.8241 33.9453 43.2643C33.8806 43.6035 33.6831 44.0835 33.6184 44.3902C33.5537 45.2058 33.5538 46.3678 33.5538 47.1833C33.5538 48.9552 33.6507 50.2867 34.1788 51.9215C34.6637 53.8918 36.3448 56.1833 36.3448 56.1833C36.9698 56.5586 37.3291 57.2045 37.8858 57.5798C38.1481 57.7169 39.2652 58.3629 39.5274 58.4675C39.9225 58.6047 40.2494 58.8068 40.6769 58.9114C41.4636 59.1171 42.2179 59.1857 43.0082 59.1857C51.0904 59.1857 53.0517 49.7094 53.084 49.6083V46.9848C53.0517 46.9487 53.0194 46.7106 53.0194 46.642V45.3465H53.0229ZM46.1261 47.4937C46.0291 47.7318 46.0938 47.7318 46.0938 48.0746C45.9932 48.6556 45.9609 49.3016 45.8639 49.8826C45.8316 50.0522 45.5011 51.2791 45.2748 51.6219C45.1419 51.7915 44.9443 51.8962 44.9443 52.1668C44.287 52.7803 44.4845 52.9824 43.371 52.9824C42.4514 52.9824 41.6324 52.0947 41.3019 51.2791C41.3019 51.2106 41.169 50.8028 41.169 50.7667C41.1044 50.5971 41.0074 50.2218 40.9068 50.0522C40.9068 50.0522 40.2818 47.804 40.2494 47.2591C40.2494 47.122 40.1524 45.96 40.1524 45.8265V45.6893C40.1524 44.3253 40.3177 42.7916 41.2373 41.6657C41.3342 41.5322 42.1209 40.9187 42.1568 40.8501C42.1892 40.814 42.3544 40.7491 42.3867 40.7491H42.8465C43.4392 40.7491 43.8308 40.8177 44.2905 41.294C45.44 42.4849 45.7669 43.0983 46.0327 44.8377C46.0327 44.8702 46.0974 44.9063 46.0974 44.9387V45.0073C46.0974 45.0434 46.1297 45.895 46.1297 46.061V47.4937H46.1261ZM93.1216 45.3176C93.1216 45.2816 93.0354 44.7655 93.0354 44.7655C93.039 44.6284 92.9528 44.1484 92.9528 44.0763C92.9528 44.0438 92.7839 42.7699 92.5612 42.3116C92.5289 42.2792 92.4319 42.1348 92.4319 42.1023C91.4728 38.8762 88.8398 36.794 85.6716 35.881C85.4776 35.5635 85.0717 35.6826 84.7736 35.5274C83.2685 35.3145 81.4257 35.051 79.8488 34.968L79.177 35.0005L75.8795 35.1413C75.6101 35.1629 75.5634 35.6032 75.5275 35.7728C75.5239 35.9785 75.4736 36.5558 75.47 36.6605C75.47 36.7291 75.4017 38.057 75.3874 38.5659C75.3802 38.8762 75.3874 41.0955 75.3874 41.2002C75.4161 41.4383 75.4269 44.9243 75.4592 44.964L75.4772 48.2118C75.4772 48.2443 75.5382 53.65 75.5347 53.751C75.5598 54.1263 75.4772 54.7037 75.6352 55.0899C75.5742 56.0786 75.549 57.0999 75.5921 58.0959C75.6209 58.2005 75.7214 58.3051 75.7861 58.3448L76.8601 58.399C78.4694 58.482 80.0499 58.3918 81.6628 58.4026C81.731 58.4062 82.0328 58.3882 82.0687 58.3882C82.0687 58.3882 85.2046 57.9335 86.0164 57.7675C86.4223 57.652 86.8318 57.4679 87.2377 57.3164C88.0172 57.0493 88.7644 56.7787 89.4505 56.3348C89.5546 56.2374 90.0288 56.0894 90.0647 55.8874C90.6107 55.6095 91.0633 55.0502 91.4764 54.5233C91.5123 54.4583 91.5806 54.4259 91.6165 54.3573C91.7243 54.0903 92.396 52.7911 92.5038 52.488C92.6834 52.1235 93.0031 50.1207 93.0031 50.1207C93.0102 49.814 93.1324 48.9335 93.136 48.8974L93.2581 46.8513C93.0641 46.5013 93.1863 45.7218 93.1288 45.3068M87.4173 47.7607C87.3886 48.8541 87.2162 50.3481 86.2571 51.0482C86.0847 51.1781 86.0847 51.142 85.8153 51.2322C84.4215 51.8096 83.096 52.4591 81.5191 52.3798L81.3179 52.3689C81.2533 52.3328 81.2281 52.0225 81.2281 51.9864L81.2677 50.4852C81.2066 50.2759 80.8797 43.3906 80.93 41.4456L80.9408 41.0703L81.8172 40.98C82.0184 40.9909 82.7548 41.063 82.9236 41.1027C83.29 41.2579 83.6887 41.3157 84.091 41.4383C85.0609 41.6585 85.8763 42.557 86.4618 43.304C86.5911 43.4484 86.5876 43.5819 86.6845 43.7587C86.6845 43.7948 86.9396 44.217 86.9755 44.2531C87.2665 44.7114 87.1695 45.7326 87.3994 46.0863C87.3527 46.6312 87.4425 47.1472 87.4245 47.7643M109.811 50.9291V50.9977C109.793 51.2358 109.62 52.3834 109.609 52.5854C109.494 52.7514 109.139 53.6175 109.096 53.751C108.819 54.4186 108.208 54.9347 107.896 55.5987C105.55 57.9046 103.334 58.6552 100.083 58.5108C98.5277 58.4423 96.6059 57.5654 95.4062 56.6271C95.0506 56.342 93.2258 55.1007 93.2473 54.729C93.2689 54.3573 93.7646 54.0397 93.9837 53.7438C94.0987 53.5453 94.3178 53.2819 94.3645 53.0798C94.5225 52.7154 94.6698 52.5494 94.8566 52.2535C94.8925 52.221 95.0074 52.0225 95.0074 51.99C95.0901 51.7555 95.2984 51.6616 95.381 51.4632C95.6073 51.0987 95.7546 50.3264 96.297 50.3517H96.3293C96.394 50.3914 96.5916 50.4672 96.6239 50.4997C96.8215 50.5754 97.0657 51.0301 97.2238 51.2394C97.3244 51.2791 97.7015 51.7374 97.7985 51.8457C97.9278 51.9539 100.449 53.5345 101.261 53.5706C102.177 53.6139 103.23 53.0149 103.294 51.9287C103.381 50.5069 102.386 49.5794 101.161 49.049C100.072 48.5582 98.9803 48.0674 97.9314 47.5081C97.3711 47.2447 96.8682 47.122 96.3796 46.7936C95.9558 46.5374 95.4672 46.209 95.187 45.8228C94.9967 45.5739 95.0039 45.4764 94.8817 45.231C94.8817 45.1986 94.853 45.1625 94.853 45.1625C94.4543 44.466 94.0448 43.3942 94.0915 42.5823V42.5462L94.1346 42.4127C94.1346 42.3766 94.1202 42.0735 94.1238 42.0049C94.1238 42.0049 94.1058 41.7667 94.113 41.6657C94.192 40.3449 94.6806 39.0061 95.3954 37.8838C95.3954 37.8477 95.5032 37.7539 95.5391 37.7214C95.5786 37.6204 96.2719 36.8373 96.376 36.7399C96.5233 36.5739 96.4587 36.5053 96.7388 36.3826C96.7748 36.3502 97.371 36.0362 97.4429 35.9712L98.05 35.5238C98.6498 35.1413 99.7742 35.0583 100.464 34.885C100.708 34.8273 100.949 34.7046 101.254 34.719C101.427 34.6902 102.343 34.6974 102.511 34.7082C102.651 34.6469 102.885 34.6902 102.986 34.6974L103.323 34.7118C103.355 34.7118 103.657 34.7948 103.69 34.8309C103.79 34.8345 104.67 34.9067 104.738 34.9103C106.524 35.1268 107.54 35.6826 108.902 36.7615L109.383 37.2234C109.512 37.2992 109.638 37.4724 109.631 37.6096C109.617 37.8477 109.476 37.9091 109.333 38.0715L108.697 39.0278C108.553 39.1938 108.065 39.9516 108.065 39.9516C107.95 40.1501 107.497 40.9115 107.386 41.0414C107.231 41.3373 106.937 41.7343 106.563 41.7162C105.92 41.6873 105.615 41.1641 105.155 40.8718L104.631 40.5759C104.433 40.4676 103.772 40.1645 103.743 40.1284C103.481 39.948 102.982 39.8217 102.608 39.8072C101.897 39.7748 100.794 40.0671 100.575 40.8682C100.529 41.0703 100.503 41.478 100.489 41.7162C100.464 42.0879 100.715 42.4379 101.013 42.5895C101.868 43.0695 103.822 43.8056 103.988 43.9139C104.02 43.9139 104.218 44.0257 104.318 44.0654C104.886 44.2278 105.407 44.5887 105.931 44.9207C106.29 45.1408 106.61 45.462 107.009 45.6135C108.04 46.541 108.898 47.4648 109.361 48.7783C109.419 48.9515 109.699 49.4026 109.717 49.6083C109.728 50.0161 109.836 50.496 109.807 50.9363M73.8931 45.314C73.6632 44.733 73.7278 43.95 73.6308 43.3726C73.6308 43.304 73.4979 42.8277 73.4656 42.723C73.4656 42.6905 73.365 42.041 73.3327 41.9724C73.2357 41.46 73.0381 41.1569 72.9376 40.6444C72.9376 40.5759 72.8406 40.3702 72.8406 40.3016C72.1832 38.804 71.2313 37.6457 69.8879 36.7579L69.3598 36.3826C68.6055 35.9749 67.7829 35.448 66.9962 35.1413C65.7498 34.7335 64.5356 34.7479 63.1886 34.7479C62.2367 34.7479 61.2848 35.1918 60.4335 35.4985C57.8723 36.3574 56.4283 38.804 56.4283 38.804C56.0008 39.2804 55.1495 41.395 55.0489 41.9724C54.9519 42.4163 54.9196 42.7916 54.819 43.2355C54.7543 43.5747 54.5568 44.0546 54.4921 44.3613C54.4275 45.1805 54.4275 46.3389 54.4275 47.1544C54.4275 48.9263 54.5244 50.2579 55.0525 51.8926C55.5374 53.8629 57.2185 56.1544 57.2185 56.1544C57.8435 56.5261 58.2028 57.1756 58.7595 57.5509C59.0218 57.6881 60.1389 58.334 60.4011 58.4387C60.7963 58.5758 61.1231 58.7779 61.5506 58.8825C62.3373 59.0882 63.0916 59.1532 63.8819 59.1532C71.9641 59.1532 73.9254 49.6769 73.9577 49.5758V46.9524C73.9254 46.9199 73.8931 46.6817 73.8931 46.6095V45.314ZM66.9998 47.4612C66.9028 47.6993 66.9675 47.6993 66.9675 48.0422C66.8705 48.6232 66.8346 49.2691 66.7376 49.8501C66.7053 50.0197 66.3748 51.2466 66.1449 51.5895C66.012 51.7591 65.8144 51.8637 65.8144 52.1344C65.1571 52.7478 65.3582 52.9499 64.2375 52.9499C63.3179 52.9499 62.4989 52.0622 62.1684 51.2466C62.1684 51.1781 62.0355 50.7667 62.0355 50.7342C61.9709 50.5646 61.8739 50.1893 61.7733 50.0197C61.7733 50.0197 61.1483 47.7679 61.116 47.2266C61.116 47.0895 61.019 45.9311 61.019 45.794V45.6568C61.019 44.2928 61.1842 42.7591 62.1038 41.6332C62.2008 41.4961 62.9874 40.8826 63.0234 40.814C63.0557 40.7816 63.2209 40.713 63.2533 40.713H63.713C64.3022 40.713 64.6973 40.7816 65.1571 41.2579C66.3065 42.4488 66.6334 43.0622 66.8956 44.8016C66.8956 44.8341 66.9603 44.8702 66.9603 44.9026V44.9712C66.9603 45.0037 66.9926 45.8553 66.9926 46.0249V47.4576L66.9998 47.4612Z" fill="white"/>
</g>
<defs>
<clipPath id="clip0_89_7924">
<rect width="121" height="89" fill="white"/>
</clipPath>
</defs>
</svg>
