<svg width="186" height="135" viewBox="0 0 186 135" fill="none" xmlns="http://www.w3.org/2000/svg">
<path d="M185.129 0.606572C185.338 0.793547 185.358 1.07963 185.169 1.24416C185.054 1.34421 184.924 1.45664 184.801 1.56231C184.641 5.47811 182.948 17.9887 168.299 25.3529C160.244 29.4024 151.404 30.3443 145.33 30.4102C145.287 30.4293 145.244 30.4509 145.199 30.4689C144.957 30.5799 144.717 30.6883 144.472 30.7944C144.26 30.887 144.052 30.9808 143.84 31.0735C144.232 31.1771 144.623 31.2834 145.013 31.3896C145.47 31.5152 145.925 31.6397 146.376 31.7721C146.995 31.9488 147.604 32.1274 148.206 32.3128L148.553 32.2971C153.076 32.0762 159.957 32.315 167.048 34.7088C180.006 39.0859 184.423 47.5834 185.467 50.0826L185.587 50.3682C185.614 50.4142 185.635 50.4605 185.643 50.5048L185.744 50.7479L185.624 50.7303C185.615 50.7513 185.612 50.772 185.602 50.7893C185.472 50.9953 185.162 51.0486 184.908 50.9077C184.685 50.7831 184.438 50.6457 184.184 50.5048C179.011 49.6841 174.064 48.4095 169.472 46.6956C161.073 43.5598 153.863 38.948 148.58 33.3406C148.21 33.228 147.84 33.1117 147.464 32.9995C147.009 32.8622 146.554 32.7314 146.097 32.5994C145.068 32.302 144.025 32.0171 142.965 31.7433C142.85 31.7126 142.749 31.6503 142.679 31.5761C137.556 34.2413 132.364 36.7706 127.111 39.1675C124.033 40.5702 120.934 41.9292 117.816 43.2367C119.412 43.62 120.98 44.0255 122.519 44.4467L122.936 44.4271C124.588 44.3483 126.505 44.3214 128.614 44.39C133.298 44.5472 138.921 45.2003 144.647 46.9517C159.814 51.584 164.853 60.6338 166.039 63.2969L166.171 63.5972C166.202 63.648 166.227 63.6992 166.241 63.7522L166.335 63.9675L166.233 63.9514C166.223 63.9751 166.225 64.0006 166.214 64.0243C166.098 64.236 165.792 64.3032 165.531 64.1691C165.262 64.0342 164.971 63.8865 164.664 63.7293C158.578 62.8701 152.77 61.5196 147.391 59.7C141.138 57.5873 135.461 54.8344 130.582 51.5749C127.781 49.7079 125.247 47.6694 123.016 45.4907C120.883 44.8939 118.693 44.3323 116.442 43.8063C115.424 44.2277 114.405 44.6452 113.382 45.0579C113.375 45.0737 113.368 45.0895 113.355 45.1056C113.258 45.288 113.026 45.3562 112.799 45.2959C102.736 49.33 92.4634 52.8836 82.0115 55.9485C83.5931 56.2352 85.1503 56.5426 86.6868 56.869L87.1245 56.8085C92.7439 56.0259 101.38 55.5633 110.612 57.8176C127.453 61.9315 134.262 72.2036 135.946 75.2567L136.135 75.6C136.18 75.6538 136.213 75.7084 136.232 75.7728L136.305 75.9071L136.253 75.9036C136.251 75.9525 136.245 76.0028 136.222 76.049C136.119 76.2664 135.82 76.3524 135.556 76.2326C135.247 76.0961 134.908 75.9434 134.557 75.7887C127.952 75.3228 121.559 74.2501 115.541 72.5818C104.541 69.5269 94.8029 64.4597 87.3366 57.9134C84.9767 57.3999 82.5554 56.9347 80.084 56.5133C73.6816 58.3517 67.2138 60.0091 60.6804 61.4791C61.1802 61.6574 61.6807 61.8485 62.1703 62.0505C65.2041 63.307 68.0924 65.0307 70.7765 67.1839C71.4024 66.4563 72.6526 66.0014 74.2746 65.9345C76.3098 65.8496 79.1966 66.4066 81.1859 68.2193C82.6131 69.5212 83.5855 71.5373 83.6504 73.3518C83.6962 74.5314 83.3396 75.4874 82.653 76.0453C80.622 77.6879 76.0681 75.7347 73.6951 73.7564C73.0159 73.192 72.2511 72.4067 71.6158 71.5526C70.9858 70.7007 70.4864 69.7774 70.3428 68.9328C70.2872 68.6064 70.2952 68.2918 70.3621 67.9996C67.7028 65.8322 64.8371 64.0995 61.8285 62.857C60.9003 62.472 59.9529 62.1316 59.0045 61.8439C55.9394 62.5163 52.862 63.1522 49.7731 63.7426C47.8071 64.1224 45.8373 64.4819 43.8605 64.829C29.4322 67.3404 14.6724 68.973 -0.2302 69.7083C23.2102 72.6395 44.4534 78.292 62.9775 86.5527C63.3431 86.7167 63.7062 86.8797 64.0666 87.0415C64.5798 87.2755 65.0881 87.5136 65.6002 87.7502C67.4474 87.9707 69.2504 88.1348 71.0246 88.2645C77.5633 84.0375 85.9371 81.7998 95.2531 81.7927C100.483 81.7897 106.011 82.4764 111.682 83.8333C111.828 83.8059 111.977 83.7796 112.115 83.7551C112.383 83.7055 112.677 83.8633 112.767 84.1083C112.858 84.3532 112.715 84.5907 112.442 84.6382C112.335 84.6608 112.215 84.6804 112.099 84.7023C110.399 87.2328 104.197 94.6605 90.3889 94.1598C82.7726 93.8841 75.7914 91.3135 71.2233 89.1765C70.1692 89.105 69.1061 89.0109 68.0284 88.9074C77.3792 93.4424 86.0088 98.695 93.7493 104.555C93.7964 104.548 93.846 104.541 93.8963 104.547C95.0687 104.691 96.2144 104.796 97.3411 104.88C101.59 102.109 107.022 100.641 113.071 100.639C116.457 100.638 120.041 101.091 123.718 101.977C123.799 101.962 123.88 101.947 123.955 101.932C124.179 101.892 124.413 101.999 124.539 102.175L124.558 102.183L124.552 102.196C124.572 102.223 124.594 102.252 124.608 102.283C124.699 102.528 124.552 102.767 124.284 102.817C124.237 102.824 124.179 102.837 124.129 102.843C122.971 104.573 118.915 109.397 109.973 109.067C105.023 108.882 100.487 107.199 97.5075 105.788C96.7067 105.729 95.8972 105.654 95.0743 105.567C95.0957 105.582 95.1144 105.597 95.1321 105.614C95.2686 105.716 95.3254 105.859 95.3243 105.999C95.9965 106.645 96.6545 107.287 97.2926 107.94C100.493 109.315 105.038 111.81 108.822 115.95C115.688 123.462 115.224 131.16 114.868 133.56C114.912 133.631 114.957 133.707 114.998 133.778C115.133 134.008 115.044 134.272 114.795 134.364C114.777 134.371 114.756 134.369 114.736 134.372L114.729 134.416L114.681 134.383C114.456 134.414 114.21 134.311 114.093 134.113C114.042 134.029 113.987 133.934 113.933 133.842C110.58 131.409 107.61 128.684 105.105 125.732C100.635 120.472 97.6515 114.483 96.4739 108.406C95.5666 107.482 94.6316 106.564 93.6495 105.653C93.6075 105.613 93.5731 105.57 93.5473 105.522C84.7268 98.7902 74.7293 92.8567 63.7987 87.8861C64.0106 88.1896 64.2151 88.4961 64.4094 88.8045C65.1827 90.0393 65.8364 91.3348 66.364 92.6911C66.7788 93.7525 67.1188 94.8502 67.3782 95.9755C67.6204 95.9491 67.885 95.9573 68.1615 95.9956C68.8825 96.0948 69.691 96.4032 70.514 96.9019C72.0061 97.8078 73.8567 99.6168 74.173 101.73C74.3607 102.993 73.9951 104.381 73.2211 105.46C73.0653 105.676 72.8971 105.878 72.7113 106.063C72.0051 106.774 71.1851 107.15 70.3371 107.142C67.7963 107.128 65.7681 103.78 65.2722 101.368C65.2559 101.283 65.2395 101.198 65.2229 101.106C64.9471 99.4626 65.0918 97.1554 66.4231 96.2959C65.8576 93.7415 64.8865 91.3394 63.5188 89.1559C63.0947 88.4771 62.6239 87.8124 62.1226 87.1752C62.1129 87.1616 62.1017 87.1443 62.0931 87.1281C52.9518 83.0826 43.1448 79.6695 32.7358 76.907C33.7839 77.8302 34.7877 78.7624 35.7555 79.6914C39.3229 81.2717 44.381 84.0287 48.5099 88.2739C55.9732 95.9539 55.1724 103.169 54.6643 105.444C54.7066 105.512 54.7515 105.581 54.7923 105.646C54.9361 105.876 54.8546 106.137 54.6115 106.238C54.3658 106.338 54.0507 106.23 53.9047 106.005C53.8523 105.917 53.7894 105.824 53.7303 105.73C50.0238 103.135 46.7637 100.294 44.0366 97.2867C39.1769 91.9247 36.0349 86.0071 34.9397 80.1655C33.9514 79.212 32.9209 78.2621 31.8431 77.3136C31.7475 77.2318 31.6918 77.1298 31.6732 77.0283C31.6533 76.9012 31.6908 76.7709 31.7986 76.6802C31.8046 76.6734 31.8136 76.6742 31.8185 76.6701C20.9335 73.833 9.40199 71.6991 -2.71285 70.2954L-2.55138 68.9029C1.42128 68.7282 5.38921 68.4923 9.34191 68.1905C9.35707 68.141 9.37748 68.0937 9.4163 68.0543C10.3611 66.9562 11.2532 65.8572 12.0939 64.7547C11.3827 58.0811 13.0489 51.2957 16.9265 45.1219C19.1024 41.6556 21.9634 38.379 25.4295 35.3761C25.4682 35.265 25.5068 35.1538 25.5446 35.0517C25.6227 34.8203 25.9105 34.717 26.1827 34.8158C26.455 34.9146 26.6136 35.1826 26.5315 35.409C26.505 35.4849 26.4754 35.575 26.444 35.655C27.806 38.2133 31.2296 46.4256 25.0804 55.2761C21.6879 60.1597 16.6993 63.3597 13.0576 65.2018C12.3244 66.1637 11.5552 67.1224 10.7449 68.0822C21.8065 67.1948 32.766 65.8144 43.5399 63.9392C45.4509 63.6074 47.3583 63.2552 49.2574 62.8933C49.3284 62.8803 49.3969 62.8662 49.468 62.8532C49.4547 62.754 49.4786 62.6552 49.5472 62.5757C50.7387 61.1444 51.8632 59.7092 52.9235 58.2713C51.9735 49.652 54.0243 40.8844 58.8558 32.9055C61.5672 28.4295 65.1422 24.1922 69.4823 20.3131C69.5364 20.1588 69.5842 20.0048 69.6327 19.8636C69.7107 19.6323 69.997 19.5251 70.2678 19.6202C70.54 19.719 70.701 19.9818 70.6241 20.2105C70.5832 20.3269 70.5392 20.4576 70.4987 20.5804C72.1945 23.8097 76.6151 34.429 68.9376 45.8811C64.7097 52.1875 58.4641 56.3134 53.9072 58.6865C52.9533 59.9865 51.9453 61.2817 50.8857 62.5735C64.3491 59.9355 77.5608 56.5154 90.4712 52.3417C90.4266 52.2788 90.3971 52.2099 90.3856 52.1426C90.37 52.0486 90.3879 51.9566 90.4385 51.8755C91.245 50.6211 91.9933 49.3571 92.6877 48.0948C92.481 47.223 92.301 46.3471 92.1559 45.477C90.9676 38.4354 91.7374 31.4439 94.4251 25.1088C96.1174 21.1157 98.5624 17.3728 101.685 13.9815C101.709 13.8545 101.728 13.7226 101.749 13.6009C101.791 13.36 102.051 13.2198 102.332 13.2848C102.614 13.3535 102.807 13.5991 102.769 13.8384C102.752 13.9432 102.734 14.0571 102.715 14.1672C104.53 17.1706 109.576 27.0559 104.615 37.2705C101.888 42.8872 97.1991 46.441 93.69 48.4526C93.0457 49.6274 92.3552 50.801 91.6181 51.9669C98.6913 49.651 105.675 47.1094 112.562 44.3424C112.958 43.5906 113.326 42.8108 113.649 42.0118C114.835 39.0692 115.533 35.7975 115.728 32.2772C114.632 31.458 114.073 29.8136 113.81 28.2693C113.619 27.1299 113.586 26.0431 113.619 25.39C113.768 22.2056 115.451 17.881 118.222 18.0483C118.999 18.0969 119.809 18.4963 120.569 19.2049C120.657 19.2897 120.748 19.3757 120.833 19.4683C122.32 21.0144 123.33 23.4707 123.329 25.5812C123.329 25.921 123.302 26.2585 123.25 26.5883C122.86 29.1324 121.078 31.3033 119.316 32.2486C118.41 32.7367 117.511 32.9066 116.739 32.7384C116.51 36.2222 115.803 39.4712 114.624 42.3981C114.439 42.8483 114.245 43.2977 114.039 43.7388C118.344 41.9838 122.61 40.1399 126.833 38.2087C130.706 36.4382 134.549 34.5924 138.354 32.6744C138.348 32.653 138.335 32.6319 138.334 32.6127C138.302 32.4337 138.399 32.2603 138.587 32.1857C139.789 31.7193 140.97 31.2375 142.129 30.7466C142.649 30.4751 143.171 30.2046 143.692 29.9279C143.923 29.8059 144.153 29.684 144.385 29.5594C144.505 29.4962 144.627 29.4304 144.748 29.3671C148.879 20.6557 156.093 13.2468 165.646 7.92964C171.068 4.91038 177.234 2.55195 183.976 0.909921C184.12 0.785133 184.268 0.658847 184.402 0.542298C184.592 0.377782 184.916 0.399293 185.129 0.584771L185.129 0.606572ZM169.782 45.8782C173.577 47.2919 177.62 48.407 181.833 49.2061C180.877 48.6752 179.815 48.0887 178.654 47.4474C173.606 44.6669 167.325 41.2042 164.597 39.7895C160.357 37.5854 155.609 35.6328 150.438 33.9401C155.482 38.9109 162.124 43.0186 169.78 45.8744L169.782 45.8782ZM165.037 39.0288C167.775 40.4507 174.068 43.9152 179.145 46.7146C181.094 47.7898 182.788 48.7267 184.131 49.4718C182.631 46.3955 178.092 39.3666 166.786 35.5467C160.884 33.554 155.124 33.0944 150.815 33.1393C156.001 34.8479 160.77 36.8095 165.037 39.0288ZM71.5792 67.8452C71.5942 67.8611 71.6115 67.8716 71.6265 67.8875C71.8432 68.0715 71.8669 68.3561 71.6816 68.5255C71.59 68.6075 71.4651 68.6441 71.3355 68.6411C71.3586 70.0104 72.993 72.0098 74.3545 73.1462C76.4195 74.87 80.3869 76.5856 81.9053 75.3578C82.4032 74.9554 82.6566 74.2167 82.6192 73.2777C82.6133 73.0601 82.5895 72.8409 82.5513 72.6186C82.3181 71.2303 81.5356 69.7639 80.4856 68.8087C78.7667 67.2437 76.159 66.7697 74.4474 66.8416C73.0889 66.8974 72.0065 67.2814 71.5766 67.8441L71.5792 67.8452ZM105.907 125.261C107.894 127.6 110.187 129.799 112.73 131.817C112.299 131.088 111.816 130.281 111.288 129.395C109.031 125.615 106.224 120.915 104.972 118.94C103.018 115.867 100.614 112.806 97.8102 109.803C99.1234 115.234 101.899 120.548 105.91 125.262L105.907 125.261ZM105.86 118.581C107.122 120.569 109.93 125.273 112.214 129.097C112.877 130.206 113.47 131.201 113.98 132.063C114.174 128.942 113.698 122.641 108.058 116.465C105.148 113.282 101.77 111.11 98.9513 109.688C101.645 112.612 103.96 115.585 105.863 118.58L105.86 118.581ZM113.199 101.549C107.847 101.552 102.998 102.739 99.0758 104.993C102.695 105.168 106.067 105.033 109.138 104.572C111.12 104.277 115.713 103.447 119.406 102.778C120.154 102.642 120.852 102.513 121.487 102.398C118.635 101.834 115.856 101.548 113.202 101.55L113.199 101.549ZM109.89 108.174C117.182 108.443 121.016 105.094 122.627 103.13C121.787 103.285 120.816 103.462 119.727 103.659C116.03 104.33 111.428 105.161 109.43 105.462C106.535 105.893 103.388 106.053 100.022 105.935C102.734 107.021 106.199 108.037 109.89 108.174ZM67.5758 96.8901C67.6034 97.1296 67.4333 97.3431 67.157 97.3547C67.0458 97.3597 66.9425 97.3245 66.8528 97.2795C66.1113 98.0944 66.0189 99.9844 66.292 101.331C66.7541 103.597 68.571 106.243 70.2203 106.25C70.7822 106.256 71.3787 105.964 71.9041 105.434C72.2014 105.135 72.4583 104.778 72.6585 104.394C73.0891 103.569 73.2811 102.605 73.1559 101.746C73.1533 101.723 73.1507 101.7 73.1455 101.676C72.8479 99.9171 71.278 98.4039 70.0062 97.6305C69.5588 97.3595 69.1282 97.158 68.7264 97.0344C68.2888 96.8924 67.8951 96.844 67.577 96.8875L67.5758 96.8901ZM95.3838 82.7034C86.7575 82.7089 78.9606 84.6718 72.7405 88.3847C78.6814 88.7136 84.2057 88.5196 89.212 87.7778C92.2728 87.3249 99.3676 86.0567 105.08 85.0367C106.718 84.7459 108.186 84.4787 109.459 84.2455C104.607 83.2208 99.8826 82.6966 95.3838 82.7034ZM90.3078 93.2643C102.36 93.6995 108.385 87.882 110.62 84.9804C109.172 85.2439 107.407 85.561 105.392 85.9257C99.6829 86.9442 92.5779 88.2143 89.5044 88.6679C84.6786 89.3816 79.3835 89.5934 73.7089 89.3266C78.0786 91.1721 83.9712 93.0359 90.3104 93.2654L90.3078 93.2643ZM44.8182 96.7978C47.019 99.2256 49.5765 101.542 52.4433 103.706C51.9903 102.993 51.4883 102.205 50.9388 101.348C48.6529 97.7733 45.526 92.8755 44.1689 90.8837C42.0402 87.7543 39.3793 84.601 36.2459 81.4589C37.5103 86.7063 40.448 91.9776 44.8182 96.7978ZM45.0356 90.4939C46.4012 92.5019 49.5349 97.4058 51.8222 100.984C52.5882 102.178 53.2661 103.244 53.84 104.146C54.2071 101.281 54.0018 95.2339 47.765 88.8223C44.5725 85.5424 40.7955 83.1763 37.6382 81.5703C40.5401 84.5408 43.0199 87.5287 45.033 90.4927L45.0356 90.4939ZM24.1905 54.7517C27.6562 49.7563 27.9613 44.9899 27.3587 41.4093C27.0466 39.5536 26.4886 38.022 26.0047 36.9401C25.6268 38.0179 25.1652 39.3183 24.6412 40.7851C23.0931 45.1303 21.1648 50.5367 20.2526 52.8306C18.8604 56.3233 16.9057 59.8477 14.4211 63.3647C17.6649 61.4911 21.4636 58.6785 24.1905 54.7517ZM19.2744 52.4458C20.1836 50.1662 22.1058 44.7666 23.6555 40.4251C24.0534 39.3154 24.4116 38.2978 24.7293 37.4029C21.9818 39.9833 19.669 42.7482 17.8495 45.6419C14.3073 51.2839 12.6545 57.439 13.0225 63.528C15.7135 59.8288 17.8103 56.1195 19.2744 52.4458ZM68.0384 45.3714C72.3871 38.8865 72.7384 32.684 71.9574 28.0287C71.516 25.425 70.7239 23.309 70.071 21.8892C69.5834 23.3437 68.9759 25.1267 68.2828 27.1659C66.3626 32.7848 63.9709 39.7777 62.8383 42.734C61.0475 47.4172 58.5 52.1417 55.2373 56.8475C59.4248 54.4271 64.4741 50.689 68.0369 45.3676L68.0384 45.3714ZM61.8556 42.3597C62.9822 39.4101 65.3705 32.4251 67.2884 26.8115C67.8611 25.1381 68.3716 23.6375 68.8057 22.3501C65.1801 25.8018 62.1463 29.515 59.787 33.4135C55.2791 40.8523 53.2438 48.9843 53.8417 57.0182C57.3082 52.1292 59.9963 47.216 61.8541 42.3559L61.8556 42.3597ZM115.743 71.7306C120.942 73.1731 126.432 74.171 132.106 74.7059C130.667 74.0662 129.026 73.3391 127.216 72.5421C120.45 69.5594 112.029 65.8465 108.386 64.346C102.582 61.9529 96.1632 59.943 89.2186 58.3423C96.385 64.2759 105.5 68.887 115.746 71.7318L115.743 71.7306ZM108.724 63.5346C112.382 65.0419 120.809 68.7571 127.585 71.7444C130.375 72.9735 132.769 74.0378 134.621 74.8594C132.446 71.2736 125.687 62.4103 110.456 58.6919C102.418 56.7282 94.8248 56.8679 89.3566 57.4665C96.3688 59.0839 102.858 61.1116 108.724 63.5346ZM103.664 36.8508C107.952 28.0293 104.499 19.452 102.469 15.6606C102.252 16.914 101.991 18.4224 101.695 20.1277C100.806 25.191 99.7035 31.4871 99.1339 34.1501C98.2382 38.3561 96.7212 42.5713 94.6059 46.7497C97.7512 44.6995 101.403 41.5054 103.664 36.8508ZM98.1201 33.884C98.6867 31.2352 99.7896 24.9456 100.679 19.8733C100.936 18.4035 101.167 17.0814 101.359 15.9423C98.8501 18.9093 96.8448 22.125 95.4039 25.5281C92.6099 32.1167 91.9363 39.4272 93.4249 46.7481C95.6292 42.4865 97.2062 38.1756 98.1201 33.884ZM118.706 31.4802C120.492 30.5207 122.299 28.1548 122.304 25.485C122.305 25.1234 122.269 24.7497 122.206 24.3699C121.918 22.6679 121.022 20.872 119.866 19.7932C119.482 19.434 118.898 19.0014 118.282 18.963C116.449 18.8545 114.797 22.4785 114.656 25.5509C114.566 27.4202 114.99 30.0724 115.968 31.2739C116.061 31.2174 116.177 31.1865 116.309 31.206C116.592 31.2439 116.814 31.4738 116.804 31.7192C116.806 31.7666 116.798 31.8132 116.796 31.862C117.301 31.999 117.987 31.8681 118.706 31.4802ZM130.236 50.275C135.221 53.7426 141.115 56.6577 147.656 58.8697C152.197 60.4056 157.049 61.6021 162.114 62.4508C160.951 61.8648 159.653 61.2108 158.228 60.496C152.321 57.538 144.973 53.852 141.779 52.3455C138.007 50.5677 133.895 48.9359 129.474 47.4676C127.989 46.9728 126.467 46.4968 124.909 46.0395C126.54 47.5261 128.324 48.9414 130.239 50.2762L130.236 50.275ZM129.193 46.4512C133.867 47.9822 138.205 49.6897 142.174 51.5617C145.38 53.0765 152.737 56.7633 158.669 59.7352C161.062 60.9367 163.119 61.9711 164.724 62.7823C163.082 59.573 157.893 51.9177 144.419 47.8043C138.885 46.114 133.437 45.4677 128.871 45.3051C127.64 45.2602 126.475 45.2501 125.387 45.2638C126.678 45.6464 127.945 46.0406 129.19 46.4501L129.193 46.4512ZM166.272 8.7266C157.197 13.7796 150.273 20.7428 146.15 28.9216C146.163 28.9273 146.181 28.9288 146.197 28.942C152.675 25.8827 158.359 22.4153 163.156 18.59C166.051 16.2822 172.615 10.6663 177.903 6.1519C179.594 4.70541 181.102 3.41406 182.364 2.32504C176.488 3.91068 171.081 6.0572 166.276 8.7315L166.272 8.7266ZM178.654 6.83793C173.373 11.352 166.802 16.9682 163.896 19.287C159.206 23.0305 153.68 26.4288 147.403 29.4436C153.185 29.18 160.752 28.0532 167.708 24.5553C180.805 17.9708 183.264 7.18138 183.699 2.51155C182.328 3.69388 180.622 5.16175 178.658 6.83644L178.654 6.83793Z" fill="#36563D" fill-opacity="0.36"/>
</svg>
