<svg width="120" height="174" viewBox="0 0 120 174" fill="none" xmlns="http://www.w3.org/2000/svg">
<path d="M52.8078 0.187029C53.0504 0.120969 53.2751 0.245527 53.3063 0.468177C53.3255 0.603334 53.3468 0.755561 53.3659 0.899963C56.231 2.92967 64.8073 10.3041 63.1964 24.9051C62.3107 32.934 58.7067 40.0371 55.7937 44.6339C55.7872 44.6752 55.7823 44.7185 55.7737 44.7612C55.7395 44.9966 55.7038 45.2299 55.6639 45.4661C55.6304 45.6702 55.599 45.8729 55.5655 46.0771C55.8345 45.8332 56.1049 45.5914 56.3752 45.3497C56.6926 45.0674 57.0078 44.7866 57.3273 44.5121C57.762 44.1332 58.1932 43.7627 58.6265 43.4001L58.7838 43.132C60.8237 39.6254 64.3594 34.5707 69.6174 30.4087C79.2271 22.8056 87.7674 23.6311 90.1551 24.0652L90.4282 24.1144C90.4759 24.1165 90.5207 24.1236 90.5584 24.1386L90.7903 24.1813L90.7184 24.2631C90.7298 24.2802 90.744 24.2923 90.7518 24.3087C90.8435 24.5064 90.7324 24.7653 90.5026 24.8876C90.2999 24.9949 90.0765 25.1129 89.8467 25.2352C86.7064 28.7229 83.3358 31.8187 79.8082 34.4335C73.3549 39.2161 66.3723 42.3851 59.581 43.621C59.3163 43.8435 59.0481 44.0654 58.7805 44.2929C58.4554 44.568 58.1352 44.846 57.8129 45.1255C57.0878 45.7533 56.3649 46.3982 55.642 47.0615C55.563 47.1326 55.4669 47.1781 55.3766 47.1952C54.881 52.3448 54.2496 57.4802 53.4887 62.597C53.0416 65.5943 52.5511 68.5865 52.013 71.5674C53.0796 70.5549 54.1491 69.5744 55.2164 68.6231L55.405 68.3002C56.1516 67.0202 57.0662 65.5666 58.1465 64.0149C60.5492 60.5717 63.7828 56.6643 67.8919 53.2153C78.7711 44.0763 88.0299 44.7036 90.6096 45.1114L90.8998 45.1584C90.9532 45.1599 91.0037 45.1663 91.0506 45.1812L91.2583 45.2155L91.1964 45.2844C91.2092 45.3036 91.2291 45.315 91.2419 45.3343C91.3442 45.5249 91.2453 45.7881 91.0176 45.9181C90.785 46.0546 90.5317 46.2018 90.2642 46.3553C86.6499 50.5101 82.8018 54.2167 78.811 57.3712C74.1733 61.0398 69.3354 63.9636 64.5063 66.0403C61.7367 67.2349 58.9687 68.1451 56.2435 68.7586C54.7542 70.0711 53.2642 71.4427 51.7707 72.8783C51.5911 73.8484 51.4079 74.8178 51.219 75.788C51.2276 75.8008 51.2361 75.8136 51.2418 75.8314C51.3313 75.9936 51.2694 76.2013 51.1136 76.3421C49.2371 85.8721 46.897 95.3259 44.1023 104.676C45.0893 103.627 46.0798 102.606 47.0746 101.611L47.2426 101.253C49.3953 96.6477 53.2602 89.9316 59.4571 84.0934C70.763 73.4437 81.8038 73.3369 84.92 73.5599L85.2699 73.5857C85.3325 73.5779 85.3894 73.58 85.4471 73.5971L85.5836 73.6078L85.5559 73.6448C85.5914 73.6704 85.6263 73.6996 85.6497 73.7395C85.7628 73.923 85.6816 74.1897 85.4631 74.3291C85.2099 74.4947 84.9295 74.6753 84.6421 74.8637C81.0703 79.6003 77.1459 83.8816 72.957 87.5902C65.2959 94.3668 56.7378 99.214 48.1764 101.632C46.6394 103.155 45.1088 104.748 43.5867 106.4C41.8455 112.108 39.9363 117.777 37.8544 123.404C38.2322 123.115 38.62 122.832 39.0106 122.563C41.4346 120.896 44.1388 119.566 47.0661 118.599C46.8246 117.774 47.0925 116.612 47.8334 115.361C48.7622 113.79 50.5889 111.892 52.9215 111.281C54.596 110.844 56.5855 111.096 57.9807 111.933C58.8896 112.473 59.4342 113.208 59.5185 113.996C59.7623 116.323 56.0733 118.793 53.4291 119.611C52.6736 119.847 51.7104 120.038 50.7587 120.099C49.8112 120.157 48.8737 120.082 48.1689 119.778C47.8965 119.661 47.664 119.501 47.477 119.308C44.5511 120.25 41.8512 121.558 39.4499 123.213C38.7078 123.723 37.9899 124.269 37.3111 124.841C36.3214 127.473 35.2983 130.096 34.2354 132.705C33.5619 134.368 32.8713 136.024 32.1679 137.678C27.0178 149.747 21.0456 161.635 14.3294 173.194C27.9654 157.007 42.5748 143.8 57.8182 133.907C58.1198 133.713 58.4194 133.519 58.7168 133.327C59.1429 133.056 59.5698 132.79 59.9974 132.521C61.0641 131.24 62.0668 129.965 63.0297 128.695C63.0423 121.719 65.445 114.335 69.9835 107.33C72.5322 103.398 75.7444 99.5788 79.5306 95.9782C79.5812 95.8552 79.6339 95.7307 79.683 95.6148C79.7762 95.3893 80.0381 95.2458 80.2664 95.2971C80.4947 95.3484 80.6034 95.5718 80.5059 95.8C80.471 95.8911 80.4269 95.9913 80.387 96.0888C81.4594 98.6008 84.0163 106.885 76.9052 117.018C72.9831 122.607 67.6461 126.6 63.812 128.99C63.2441 129.748 62.6549 130.501 62.0514 131.26C70.0205 126.445 78.1771 122.521 86.3567 119.563C86.3738 119.523 86.393 119.483 86.4222 119.448C87.1025 118.637 87.7402 117.828 88.3529 117.022C88.3425 112.477 89.8885 107.679 92.8379 103.132C94.489 100.587 96.5769 98.1142 99.0361 95.7828C99.0645 95.7145 99.093 95.6462 99.1186 95.5829C99.1969 95.3951 99.3919 95.2715 99.5861 95.2623L99.601 95.2523L99.6081 95.263C99.638 95.2616 99.67 95.2588 99.7006 95.263C99.9289 95.3143 100.037 95.5413 99.9437 95.7667C99.9266 95.8058 99.9074 95.8556 99.8881 95.8962C100.623 97.61 102.27 103.012 97.6602 109.571C95.1074 113.2 91.6296 115.788 89.116 117.339C88.6812 117.913 88.23 118.484 87.7632 119.06C87.7852 119.052 87.8052 119.045 87.8265 119.04C87.9702 118.987 88.1053 119.014 88.2099 119.083C89.023 118.893 89.8268 118.712 90.6285 118.551C93.2233 116.816 97.3148 114.617 102.272 113.793C111.266 112.297 116.825 116.4 118.455 117.838C118.53 117.84 118.609 117.843 118.683 117.847C118.921 117.858 119.076 118.053 119.024 118.285C119.02 118.303 119.008 118.317 119.001 118.334L119.031 118.361L118.983 118.38C118.896 118.565 118.699 118.699 118.493 118.691C118.405 118.688 118.306 118.683 118.211 118.679C114.748 120.012 111.25 120.915 107.81 121.357C101.677 122.152 95.7211 121.472 90.5798 119.393C89.4424 119.624 88.2964 119.879 87.1333 120.173C87.0828 120.185 87.0337 120.19 86.9846 120.186C77.6233 123.531 68.2879 128.151 59.2208 133.941C59.5523 133.929 59.8824 133.925 60.2089 133.93C61.5141 133.951 62.8065 134.091 64.0832 134.356C65.0832 134.562 66.0739 134.842 67.0462 135.196C67.1444 135.001 67.2796 134.807 67.4433 134.617C67.8695 134.124 68.4956 133.667 69.2718 133.291C70.6805 132.612 72.9426 132.104 74.685 132.897C75.7254 133.371 76.5907 134.323 77.0235 135.431C77.1102 135.654 77.1798 135.879 77.2281 136.108C77.4184 136.986 77.3008 137.786 76.8816 138.419C75.6311 140.322 72.1258 140.213 70.0712 139.409C69.9993 139.38 69.9275 139.351 69.8507 139.319C68.481 138.724 66.8177 137.49 66.8211 136.07C64.6256 135.249 62.3467 134.808 60.0385 134.77C59.3216 134.758 58.5925 134.788 57.869 134.854C57.8541 134.854 57.8356 134.854 57.8192 134.853C50.3203 139.749 42.9718 145.455 35.8187 151.93C37.0238 151.593 38.2139 151.293 39.3841 151.019C42.3118 149.109 46.8508 146.652 52.0551 145.62C61.467 143.757 66.4987 147.878 67.9606 149.369C68.0324 149.371 68.1064 149.371 68.1747 149.372C68.4179 149.376 68.5744 149.564 68.5316 149.796C68.4867 150.03 68.2519 150.214 68.0115 150.214C67.9197 150.21 67.8194 150.212 67.7198 150.211C63.9622 151.731 60.2367 152.795 56.6465 153.378C50.2465 154.414 44.2668 153.889 39.3425 151.863C38.1438 152.141 36.9274 152.452 35.6889 152.799C35.5808 152.831 35.4769 152.823 35.3916 152.788C35.2863 152.741 35.2067 152.649 35.1911 152.524C35.189 152.516 35.1939 152.51 35.1932 152.504C27.7519 159.3 21.9444 165.58 14.9805 174L12.9799 174C14.7863 170.929 16.1564 168.377 17.8576 165.26C17.8277 165.224 17.8021 165.186 17.7915 165.137C17.427 163.892 17.0363 162.685 16.6177 161.516C11.2555 158.795 6.96879 154.233 4.22039 148.308C2.67668 144.982 1.6097 141.234 1.0436 137.164C0.978902 137.081 0.914201 136.998 0.855902 136.919C0.720107 136.748 0.782806 136.481 0.989853 136.325C1.1969 136.168 1.47572 136.18 1.60583 136.352C1.64991 136.409 1.70323 136.475 1.74802 136.538C4.33495 136.762 12.1765 138.195 15.8286 147.133C17.844 152.064 17.8157 157.374 17.4238 161.009C17.7891 162.03 18.1344 163.075 18.4605 164.152C23.1889 155.407 27.497 146.497 31.3429 137.485C32.0256 135.887 32.6913 134.282 33.3455 132.678C33.3705 132.619 33.3932 132.56 33.4182 132.501C33.3371 132.462 33.2745 132.396 33.2482 132.306C32.7538 130.712 32.2237 129.167 31.6602 127.669C24.7192 124.179 19.1305 118.361 15.4907 110.838C13.4494 106.617 12.0087 101.864 11.2104 96.7103C11.1208 96.5943 11.0284 96.4833 10.9459 96.378C10.8101 96.2065 10.8692 95.9391 11.0727 95.782C11.2798 95.6256 11.5558 95.6328 11.6901 95.8021C11.7577 95.8896 11.8345 95.9864 11.907 96.0768C15.1611 96.3774 25.2979 98.2349 30.1597 109.591C32.8368 115.844 32.8912 122.55 32.4521 127.132C32.9637 128.483 33.4454 129.872 33.8994 131.299C38.4838 119.894 42.3576 108.297 45.518 96.5588C45.449 96.5616 45.3829 96.5502 45.3267 96.526C45.2485 96.4918 45.188 96.4334 45.1518 96.3559C44.6024 95.1379 44.0174 93.9591 43.4076 92.8215C42.6515 92.5516 41.9055 92.2597 41.1808 91.9443C35.3092 89.4028 30.4304 85.4141 26.9804 80.3043C24.805 77.0848 23.1846 73.4217 22.159 69.421C22.0751 69.3413 21.9855 69.2623 21.9044 69.1868C21.7437 69.0381 21.7652 68.7742 21.9509 68.5951C22.1402 68.4166 22.419 68.3911 22.5804 68.5363C22.6508 68.6003 22.7276 68.6693 22.8008 68.7376C25.9433 68.8384 35.8336 69.8678 41.0905 78.5782C43.9816 83.3671 44.3651 88.6245 44.1653 92.2428C44.734 93.3 45.2791 94.3913 45.7958 95.514C47.5054 89.0688 49.0015 82.5808 50.2814 76.0551C49.9097 75.3906 49.5031 74.7339 49.0601 74.1014C47.4272 71.7748 45.309 69.6544 42.7582 67.7912C41.6079 68.2154 40.0994 67.8336 38.8107 67.2776C37.8613 66.8654 37.0285 66.3601 36.5535 66.017C34.2331 64.3517 31.8039 60.9778 33.2813 58.9768C33.6969 58.4164 34.392 58.0027 35.2954 57.7768C35.4021 57.752 35.511 57.7257 35.6219 57.7072C37.5091 57.3438 39.8477 57.7828 41.4336 58.8126C41.6889 58.9785 41.9292 59.1635 42.1518 59.3635C43.8733 60.8977 44.6356 63.2958 44.487 65.0804C44.412 65.9993 44.1008 66.7582 43.5978 67.2566C46.1044 69.1276 48.2013 71.2438 49.8257 73.5575C50.0738 73.9161 50.317 74.2811 50.548 74.6511C51.3291 70.5592 52.0242 66.4539 52.6324 62.3385C53.1908 58.5645 53.678 54.7763 54.0927 50.9809C54.0735 50.9752 54.0514 50.9745 54.0365 50.966C53.8865 50.9026 53.8033 50.7454 53.8389 50.5676C54.0748 49.4367 54.2886 48.3143 54.4853 47.2034C54.5346 46.6806 54.586 46.1564 54.6324 45.6293C54.6532 45.3967 54.6739 45.1641 54.6932 44.9294C54.7046 44.8078 54.7146 44.684 54.726 44.5624C50.1942 37.2087 48.1447 28.1736 48.8085 18.4006C49.184 12.8533 50.4188 7.06942 52.4731 1.20193C52.4497 1.03264 52.427 0.859776 52.405 0.701859C52.3738 0.479208 52.5482 0.245967 52.7914 0.176352L52.8078 0.187029ZM79.3447 33.8024C82.2582 31.6397 85.0681 29.1455 87.7237 26.3689C86.8586 26.8281 85.8996 27.3406 84.8516 27.9C80.2998 30.3373 74.6339 33.3689 72.2398 34.7295C68.5154 36.8406 64.7324 39.4561 60.9379 42.5169C67.1338 41.1506 73.4606 38.1627 79.3411 33.8017L79.3447 33.8024ZM71.883 34.0273C74.287 32.6632 79.9601 29.6238 84.5403 27.1736C86.299 26.2332 87.8294 25.4172 89.0445 24.7711C86.001 24.3979 78.5046 24.3809 70.1194 31.0142C65.7429 34.4781 62.5882 38.5825 60.5199 41.8431C64.3336 38.7788 68.1337 36.1519 71.883 34.0273ZM47.9547 118.318C47.9739 118.315 47.9902 118.307 48.0094 118.304C48.2534 118.23 48.4789 118.351 48.5158 118.573C48.5328 118.682 48.4993 118.794 48.4339 118.89C49.4742 119.54 51.774 119.287 53.2921 118.818C55.5948 118.107 58.8193 115.962 58.6371 114.222C58.5776 113.652 58.146 113.101 57.4221 112.671C57.2557 112.57 57.0793 112.481 56.8937 112.401C55.7366 111.899 54.2529 111.772 53.0229 112.095C51.0083 112.623 49.3802 114.352 48.5994 115.673C47.9787 116.722 47.7394 117.722 47.9525 118.32L47.9547 118.318ZM107.848 120.525C110.574 120.173 113.346 119.522 116.102 118.595C115.345 118.563 114.502 118.533 113.579 118.498C109.637 118.35 104.736 118.167 102.641 118.145C99.3791 118.114 95.9057 118.428 92.2814 119.07C97.0031 120.732 102.35 121.238 107.85 120.524L107.848 120.525ZM102.804 117.302C104.914 117.324 109.819 117.508 113.807 117.656C114.963 117.699 116 117.738 116.897 117.776C114.646 116.108 109.678 113.392 102.286 114.619C98.4747 115.253 95.195 116.732 92.7512 118.157C96.2631 117.558 99.6263 117.269 102.805 117.299L102.804 117.302ZM93.5839 103.479C90.9762 107.503 89.5029 111.726 89.2837 115.773C91.1804 113.138 92.7241 110.539 93.8753 108.006C94.6206 106.372 96.2367 102.516 97.5353 99.4141C97.798 98.7861 98.0415 98.1987 98.265 97.6646C96.4498 99.5332 94.8792 101.482 93.586 103.478L93.5839 103.479ZM96.9491 109.197C100.708 103.849 100.061 99.334 99.3713 97.1649C99.0779 97.8719 98.7369 98.6876 98.3539 99.6022C97.0546 102.708 95.435 106.573 94.6868 108.22C93.5983 110.606 92.184 113.049 90.4532 115.521C92.592 114.013 95.0453 111.904 96.9491 109.197ZM67.8299 135.494C68.0233 135.59 68.1008 135.822 67.9748 136.035C67.9243 136.121 67.8474 136.182 67.7699 136.227C68.0206 137.182 69.3959 138.173 70.5409 138.625C72.4697 139.383 75.3441 139.308 76.154 138.072C76.4323 137.652 76.5044 137.062 76.3616 136.408C76.2821 136.039 76.1393 135.672 75.9481 135.334C75.5386 134.608 74.9072 133.993 74.201 133.669C74.1825 133.66 74.164 133.65 74.1434 133.643C72.6762 133.008 70.7733 133.45 69.5717 134.028C69.1498 134.232 68.7884 134.458 68.4995 134.7C68.1793 134.959 67.9509 135.231 67.8285 135.492L67.8299 135.494ZM70.7317 107.676C66.5283 114.161 64.2005 120.978 63.957 127.464C67.1019 123.16 69.6506 118.913 71.535 114.789C72.6875 112.268 75.1949 106.318 77.2147 101.527C77.7949 100.154 78.3104 98.9204 78.756 97.8501C75.6194 100.996 72.9209 104.292 70.7317 107.676ZM76.1926 116.642C82.3985 107.796 80.9651 100.431 79.8744 97.3362C79.3661 98.5531 78.7438 100.034 78.0347 101.726C76.0157 106.513 73.5047 112.473 72.3465 115.004C70.529 118.978 68.1055 123.061 65.1371 127.195C68.6554 124.812 72.9303 121.292 76.1947 116.64L76.1926 116.642ZM56.6603 152.552C59.5584 152.082 62.5468 151.29 65.571 150.191C64.8142 150.183 63.9777 150.177 63.0651 150.171C59.2639 150.146 54.0579 150.107 51.8991 150.155C48.509 150.228 44.8413 150.69 40.9516 151.512C45.5119 153.122 50.9063 153.485 56.6603 152.552ZM52.0288 149.314C54.204 149.267 59.4178 149.304 63.2226 149.33C64.4937 149.337 65.6254 149.347 66.5835 149.356C64.6088 147.682 59.9643 144.887 52.1039 146.447C48.0819 147.246 44.4614 148.931 41.7145 150.52C45.3623 149.788 48.8173 149.382 52.0267 149.315L52.0288 149.314ZM15.0005 147.546C12.9367 142.505 9.50351 139.95 6.51865 138.657C4.97182 137.986 3.54862 137.659 2.49951 137.495C3.12516 138.304 3.87735 139.285 4.7241 140.395C7.23449 143.678 10.357 147.764 11.636 149.568C13.5818 152.318 15.2771 155.506 16.7083 159.089C16.8824 155.737 16.6215 151.51 15.0005 147.546ZM10.8697 150.116C9.59997 148.32 6.47958 144.242 3.97275 140.96C3.33289 140.12 2.74279 139.354 2.22522 138.679C2.82432 142.002 3.77418 145.089 5.06131 147.868C7.57375 153.282 11.3933 157.526 16.1488 160.219C14.6814 156.393 12.9165 153.008 10.8697 150.116ZM29.338 110.018C26.5855 103.586 22.0955 100.297 18.216 98.6135C16.044 97.6752 14.0675 97.2384 12.682 97.0366C13.5373 98.1124 14.5809 99.4387 15.7754 100.954C19.0615 105.138 23.1502 110.346 24.8195 112.639C27.4656 116.269 29.7736 120.488 31.7187 125.236C31.9423 120.908 31.5958 115.29 29.3344 110.017L29.338 110.018ZM24.0589 113.195C22.3918 110.91 18.3073 105.708 15.024 101.529C14.0457 100.282 13.167 99.1664 12.4112 98.2123C13.2368 102.621 14.5476 106.712 16.3267 110.386C19.7184 117.402 24.837 122.898 31.1663 126.368C29.1829 121.378 26.8017 116.961 24.0554 113.195L24.0589 113.195ZM72.416 87.0231C76.0356 83.82 79.4632 80.1809 82.6329 76.1774C81.4504 76.9466 80.1036 77.8253 78.6216 78.7971C73.0799 82.4269 66.1821 86.9447 63.2778 88.9502C58.6482 92.145 54.0069 95.9886 49.4167 100.427C57.3714 97.9353 65.2828 93.334 72.4181 87.0217L72.416 87.0231ZM62.8328 88.3006C65.7499 86.2865 72.6519 81.7659 78.2022 78.1304C80.4867 76.6333 82.4539 75.3536 83.9751 74.3619C80.2194 74.2474 70.2616 75.0041 60.038 84.637C54.6416 89.7201 51.0431 95.4946 48.8258 99.896C53.4616 95.4151 58.1505 91.5274 62.8328 88.3006ZM40.3114 79.0879C35.7732 71.5628 27.6429 69.9743 23.8034 69.6506C24.6396 70.4248 25.6458 71.357 26.7828 72.4116C30.1546 75.549 34.3484 79.4485 36.072 81.1754C38.796 83.9 41.2239 87.0961 43.3322 90.7238C43.3257 87.3601 42.7063 83.0579 40.3114 79.0879ZM35.3775 81.8075C33.6632 80.0898 29.4744 76.1932 26.0961 73.0508C25.117 72.1407 24.236 71.3223 23.4737 70.6221C24.4797 73.955 25.9182 77.0304 27.773 79.7732C31.3617 85.0866 36.5271 89.1586 42.755 91.6106C40.6275 87.8755 38.1569 84.5876 35.3775 81.8075ZM43.6121 65.164C43.7621 63.3538 42.8654 60.8418 40.8614 59.5358C40.5898 59.3593 40.2918 59.2034 39.9753 59.066C38.5558 58.4524 36.769 58.2497 35.3947 58.592C34.9373 58.7057 34.3276 58.9331 33.9981 59.3775C33.0224 60.7023 34.9404 63.7111 37.1804 65.3159C38.5415 66.2952 40.7412 67.2705 42.1211 67.1216C42.124 67.0242 42.1575 66.9218 42.2365 66.8322C42.403 66.6381 42.684 66.5834 42.8639 66.7101C42.9002 66.7321 42.9315 66.7606 42.967 66.7862C43.3164 66.4734 43.5527 65.8937 43.6121 65.164ZM63.3605 65.6664C68.398 63.6112 73.4636 60.6036 78.3161 56.7672C81.6851 54.1039 84.9511 51.0408 88.0593 47.6484C87.0519 48.2362 85.9271 48.8931 84.6949 49.6153C79.5909 52.6115 73.2368 56.3357 70.5468 58.0012C67.3708 59.9689 64.1385 62.2638 60.879 64.8695C59.7826 65.7447 58.6826 66.6562 57.579 67.604C59.4919 67.1032 61.4254 66.4531 63.3626 65.665L63.3605 65.6664ZM59.9779 64.5854C63.4081 61.8197 66.8077 59.3919 70.1501 57.3225C72.8523 55.6519 79.2113 51.9214 84.3381 48.9131C86.4084 47.7004 88.1892 46.659 89.5815 45.8486C86.3687 45.5174 78.0848 45.6829 68.4216 53.8023C64.452 57.1369 61.3087 60.9163 58.9595 64.2685C58.3254 65.1716 57.7496 66.042 57.2293 66.8662C58.1465 66.0827 59.0608 65.3227 59.9758 64.5868L59.9779 64.5854ZM49.7126 18.3191C49.0839 27.6035 50.9393 36.2039 55.075 43.2914C55.0857 43.2843 55.0957 43.2715 55.1135 43.2658C55.9737 36.9057 56.1402 30.9429 55.6052 25.472C55.2828 22.1708 54.2642 14.4983 53.4506 8.32243C53.1882 6.34633 52.9534 4.58293 52.7505 3.10334C51.0763 8.29239 50.0523 13.4027 49.7183 18.3184L49.7126 18.3191ZM54.3328 8.0923C55.1492 14.2632 56.1649 21.9406 56.4901 25.2554C57.0159 30.606 56.8743 36.4166 56.0782 42.6047C58.7003 38.1308 61.5443 31.8945 62.3087 24.9603C63.7483 11.9063 56.8392 4.79563 53.5418 2.19104C53.7617 3.79795 54.0327 5.7961 54.3335 8.08874L54.3328 8.0923Z" fill="#36563D" fill-opacity="0.36"/>
</svg>
